<mxfile host="app.diagrams.net" agent="Mozilla/5.0 (Windows NT 10.0; Win64; x64) AppleWebKit/537.36 (KHTML, like Gecko) Chrome/136.0.0.0 Safari/537.36" version="27.0.9">
  <diagram name="Seite-1" id="if3xEhRFJKLneTS5tlTe">
    <mxGraphModel dx="601" dy="216" grid="1" gridSize="10" guides="1" tooltips="1" connect="1" arrows="1" fold="1" page="1" pageScale="1" pageWidth="1169" pageHeight="827" math="0" shadow="0">
      <root>
        <mxCell id="0" />
        <mxCell id="1" parent="0" />
        <mxCell id="YYT5KPldXvbkuwWLWnQn-40" value="Kasse" style="rounded=1;arcSize=10;whiteSpace=wrap;html=1;align=center;fillColor=#006633;" parent="1" vertex="1">
          <mxGeometry x="190" y="550" width="100" height="40" as="geometry" />
        </mxCell>
        <mxCell id="YYT5KPldXvbkuwWLWnQn-42" value="Artikel" style="rounded=1;arcSize=10;whiteSpace=wrap;html=1;align=center;fillColor=#006633;" parent="1" vertex="1">
          <mxGeometry x="572" y="350" width="100" height="40" as="geometry" />
        </mxCell>
        <mxCell id="YYT5KPldXvbkuwWLWnQn-43" value="Filiale" style="rounded=1;arcSize=10;whiteSpace=wrap;html=1;align=center;fillColor=#006633;" parent="1" vertex="1">
          <mxGeometry x="191" y="340" width="100" height="40" as="geometry" />
        </mxCell>
        <mxCell id="YYT5KPldXvbkuwWLWnQn-44" value="Bundesland" style="rounded=1;arcSize=10;whiteSpace=wrap;html=1;align=center;fillColor=#006633;" parent="1" vertex="1">
          <mxGeometry x="191" y="140" width="100" height="40" as="geometry" />
        </mxCell>
        <mxCell id="YYT5KPldXvbkuwWLWnQn-46" value="liegt_in" style="shape=rhombus;perimeter=rhombusPerimeter;whiteSpace=wrap;html=1;align=center;" parent="1" vertex="1">
          <mxGeometry x="181" y="230" width="120" height="60" as="geometry" />
        </mxCell>
        <mxCell id="YYT5KPldXvbkuwWLWnQn-47" value="" style="endArrow=none;html=1;rounded=0;strokeColor=default;align=center;verticalAlign=middle;fontFamily=Helvetica;fontSize=11;fontColor=default;labelBackgroundColor=default;edgeStyle=orthogonalEdgeStyle;entryX=0.5;entryY=1;entryDx=0;entryDy=0;" parent="1" target="YYT5KPldXvbkuwWLWnQn-44" edge="1">
          <mxGeometry relative="1" as="geometry">
            <mxPoint x="241" y="230" as="sourcePoint" />
            <mxPoint x="761" y="430" as="targetPoint" />
          </mxGeometry>
        </mxCell>
        <mxCell id="YYT5KPldXvbkuwWLWnQn-48" value="1" style="resizable=0;html=1;whiteSpace=wrap;align=right;verticalAlign=bottom;fontFamily=Helvetica;fontSize=11;fontColor=default;labelBackgroundColor=default;" parent="YYT5KPldXvbkuwWLWnQn-47" connectable="0" vertex="1">
          <mxGeometry x="1" relative="1" as="geometry">
            <mxPoint x="-1" y="20" as="offset" />
          </mxGeometry>
        </mxCell>
        <mxCell id="YYT5KPldXvbkuwWLWnQn-49" value="" style="endArrow=none;html=1;rounded=0;strokeColor=default;align=center;verticalAlign=middle;fontFamily=Helvetica;fontSize=11;fontColor=default;labelBackgroundColor=default;edgeStyle=orthogonalEdgeStyle;exitX=0.5;exitY=1;exitDx=0;exitDy=0;entryX=0.5;entryY=0;entryDx=0;entryDy=0;" parent="1" source="YYT5KPldXvbkuwWLWnQn-46" target="YYT5KPldXvbkuwWLWnQn-43" edge="1">
          <mxGeometry relative="1" as="geometry">
            <mxPoint x="371" y="340" as="sourcePoint" />
            <mxPoint x="531" y="340" as="targetPoint" />
          </mxGeometry>
        </mxCell>
        <mxCell id="YYT5KPldXvbkuwWLWnQn-50" value="N" style="resizable=0;html=1;whiteSpace=wrap;align=right;verticalAlign=bottom;fontFamily=Helvetica;fontSize=11;fontColor=default;labelBackgroundColor=default;" parent="YYT5KPldXvbkuwWLWnQn-49" connectable="0" vertex="1">
          <mxGeometry x="1" relative="1" as="geometry" />
        </mxCell>
        <mxCell id="YYT5KPldXvbkuwWLWnQn-51" value="" style="endArrow=none;html=1;rounded=0;strokeColor=default;align=center;verticalAlign=middle;fontFamily=Helvetica;fontSize=11;fontColor=default;labelBackgroundColor=default;edgeStyle=orthogonalEdgeStyle;entryX=0.5;entryY=1;entryDx=0;entryDy=0;exitX=0.511;exitY=-0.04;exitDx=0;exitDy=0;exitPerimeter=0;" parent="1" source="YYT5KPldXvbkuwWLWnQn-53" target="YYT5KPldXvbkuwWLWnQn-43" edge="1">
          <mxGeometry relative="1" as="geometry">
            <mxPoint x="300" y="481" as="sourcePoint" />
            <mxPoint x="460" y="481" as="targetPoint" />
          </mxGeometry>
        </mxCell>
        <mxCell id="YYT5KPldXvbkuwWLWnQn-52" value="1" style="resizable=0;html=1;whiteSpace=wrap;align=right;verticalAlign=bottom;fontFamily=Helvetica;fontSize=11;fontColor=default;labelBackgroundColor=default;" parent="YYT5KPldXvbkuwWLWnQn-51" connectable="0" vertex="1">
          <mxGeometry x="1" relative="1" as="geometry">
            <mxPoint x="-1" y="20" as="offset" />
          </mxGeometry>
        </mxCell>
        <mxCell id="YYT5KPldXvbkuwWLWnQn-53" value="besitzt" style="shape=rhombus;perimeter=rhombusPerimeter;whiteSpace=wrap;html=1;align=center;" parent="1" vertex="1">
          <mxGeometry x="180" y="441" width="120" height="60" as="geometry" />
        </mxCell>
        <mxCell id="YYT5KPldXvbkuwWLWnQn-54" value="" style="endArrow=none;html=1;rounded=0;strokeColor=default;align=center;verticalAlign=middle;fontFamily=Helvetica;fontSize=11;fontColor=default;labelBackgroundColor=default;edgeStyle=orthogonalEdgeStyle;exitX=0.5;exitY=1;exitDx=0;exitDy=0;" parent="1" source="YYT5KPldXvbkuwWLWnQn-53" edge="1">
          <mxGeometry relative="1" as="geometry">
            <mxPoint x="300" y="470" as="sourcePoint" />
            <mxPoint x="240" y="550" as="targetPoint" />
          </mxGeometry>
        </mxCell>
        <mxCell id="YYT5KPldXvbkuwWLWnQn-55" value="N" style="resizable=0;html=1;whiteSpace=wrap;align=right;verticalAlign=bottom;fontFamily=Helvetica;fontSize=11;fontColor=default;labelBackgroundColor=default;" parent="YYT5KPldXvbkuwWLWnQn-54" connectable="0" vertex="1">
          <mxGeometry x="1" relative="1" as="geometry">
            <mxPoint y="-1" as="offset" />
          </mxGeometry>
        </mxCell>
        <mxCell id="YYT5KPldXvbkuwWLWnQn-56" value="Lieferant" style="rounded=1;arcSize=10;whiteSpace=wrap;html=1;align=center;fillColor=#006633;" parent="1" vertex="1">
          <mxGeometry x="572" y="139" width="100" height="40" as="geometry" />
        </mxCell>
        <mxCell id="YYT5KPldXvbkuwWLWnQn-57" value="liefert" style="shape=rhombus;perimeter=rhombusPerimeter;whiteSpace=wrap;html=1;align=center;" parent="1" vertex="1">
          <mxGeometry x="562" y="240" width="120" height="60" as="geometry" />
        </mxCell>
        <mxCell id="YYT5KPldXvbkuwWLWnQn-58" value="Kategorie" style="rounded=1;arcSize=10;whiteSpace=wrap;html=1;align=center;fillColor=#006633;" parent="1" vertex="1">
          <mxGeometry x="982" y="350" width="100" height="40" as="geometry" />
        </mxCell>
        <mxCell id="YYT5KPldXvbkuwWLWnQn-63" value="gehÃ¶rt" style="shape=rhombus;perimeter=rhombusPerimeter;whiteSpace=wrap;html=1;align=center;" parent="1" vertex="1">
          <mxGeometry x="821" y="340" width="120" height="60" as="geometry" />
        </mxCell>
        <mxCell id="YYT5KPldXvbkuwWLWnQn-64" value="" style="endArrow=none;html=1;rounded=0;strokeColor=default;align=center;verticalAlign=middle;fontFamily=Helvetica;fontSize=11;fontColor=default;labelBackgroundColor=default;edgeStyle=orthogonalEdgeStyle;exitX=0.5;exitY=0;exitDx=0;exitDy=0;entryX=0.5;entryY=1;entryDx=0;entryDy=0;" parent="1" source="YYT5KPldXvbkuwWLWnQn-57" target="YYT5KPldXvbkuwWLWnQn-56" edge="1">
          <mxGeometry relative="1" as="geometry">
            <mxPoint x="354" y="30" as="sourcePoint" />
            <mxPoint x="622" y="80" as="targetPoint" />
          </mxGeometry>
        </mxCell>
        <mxCell id="YYT5KPldXvbkuwWLWnQn-65" value="1" style="resizable=0;html=1;whiteSpace=wrap;align=right;verticalAlign=bottom;fontFamily=Helvetica;fontSize=11;fontColor=default;labelBackgroundColor=default;fillColor=#006633;" parent="YYT5KPldXvbkuwWLWnQn-64" connectable="0" vertex="1">
          <mxGeometry x="1" relative="1" as="geometry">
            <mxPoint y="20" as="offset" />
          </mxGeometry>
        </mxCell>
        <mxCell id="YYT5KPldXvbkuwWLWnQn-66" value="" style="endArrow=none;html=1;rounded=0;strokeColor=default;align=center;verticalAlign=middle;fontFamily=Helvetica;fontSize=11;fontColor=default;labelBackgroundColor=default;edgeStyle=orthogonalEdgeStyle;exitX=0.5;exitY=1;exitDx=0;exitDy=0;entryX=0.5;entryY=0;entryDx=0;entryDy=0;" parent="1" source="YYT5KPldXvbkuwWLWnQn-57" target="YYT5KPldXvbkuwWLWnQn-42" edge="1">
          <mxGeometry relative="1" as="geometry">
            <mxPoint x="612" y="269" as="sourcePoint" />
            <mxPoint x="612" y="329" as="targetPoint" />
          </mxGeometry>
        </mxCell>
        <mxCell id="YYT5KPldXvbkuwWLWnQn-67" value="N" style="resizable=0;html=1;whiteSpace=wrap;align=right;verticalAlign=bottom;fontFamily=Helvetica;fontSize=11;fontColor=default;labelBackgroundColor=default;" parent="YYT5KPldXvbkuwWLWnQn-66" connectable="0" vertex="1">
          <mxGeometry x="1" relative="1" as="geometry" />
        </mxCell>
        <mxCell id="YYT5KPldXvbkuwWLWnQn-68" value="" style="endArrow=none;html=1;rounded=0;strokeColor=default;align=center;verticalAlign=middle;fontFamily=Helvetica;fontSize=11;fontColor=default;labelBackgroundColor=default;edgeStyle=orthogonalEdgeStyle;exitX=0;exitY=0.5;exitDx=0;exitDy=0;entryX=1;entryY=0.5;entryDx=0;entryDy=0;" parent="1" source="YYT5KPldXvbkuwWLWnQn-63" target="YYT5KPldXvbkuwWLWnQn-42" edge="1">
          <mxGeometry relative="1" as="geometry">
            <mxPoint x="552" y="269" as="sourcePoint" />
            <mxPoint x="712" y="269" as="targetPoint" />
          </mxGeometry>
        </mxCell>
        <mxCell id="YYT5KPldXvbkuwWLWnQn-69" value="N" style="resizable=0;html=1;whiteSpace=wrap;align=right;verticalAlign=bottom;fontFamily=Helvetica;fontSize=11;fontColor=default;labelBackgroundColor=default;" parent="YYT5KPldXvbkuwWLWnQn-68" connectable="0" vertex="1">
          <mxGeometry x="1" relative="1" as="geometry">
            <mxPoint x="19" y="19" as="offset" />
          </mxGeometry>
        </mxCell>
        <mxCell id="YYT5KPldXvbkuwWLWnQn-70" value="" style="endArrow=none;html=1;rounded=0;strokeColor=default;align=center;verticalAlign=middle;fontFamily=Helvetica;fontSize=11;fontColor=default;labelBackgroundColor=default;edgeStyle=orthogonalEdgeStyle;entryX=0;entryY=0.5;entryDx=0;entryDy=0;exitX=1;exitY=0.5;exitDx=0;exitDy=0;" parent="1" source="YYT5KPldXvbkuwWLWnQn-63" target="YYT5KPldXvbkuwWLWnQn-58" edge="1">
          <mxGeometry relative="1" as="geometry">
            <mxPoint x="942" y="370" as="sourcePoint" />
            <mxPoint x="792" y="369" as="targetPoint" />
          </mxGeometry>
        </mxCell>
        <mxCell id="YYT5KPldXvbkuwWLWnQn-71" value="1" style="resizable=0;html=1;whiteSpace=wrap;align=right;verticalAlign=bottom;fontFamily=Helvetica;fontSize=11;fontColor=default;labelBackgroundColor=default;" parent="YYT5KPldXvbkuwWLWnQn-70" connectable="0" vertex="1">
          <mxGeometry x="1" relative="1" as="geometry" />
        </mxCell>
        <mxCell id="YYT5KPldXvbkuwWLWnQn-72" value="" style="endArrow=none;html=1;rounded=0;strokeColor=default;align=center;verticalAlign=middle;fontFamily=Helvetica;fontSize=11;fontColor=default;labelBackgroundColor=default;edgeStyle=orthogonalEdgeStyle;entryX=1;entryY=0.5;entryDx=0;entryDy=0;exitX=0;exitY=0.5;exitDx=0;exitDy=0;" parent="1" source="QBYk8rgSqJVbzHIFE_xx-6" target="YYT5KPldXvbkuwWLWnQn-40" edge="1">
          <mxGeometry relative="1" as="geometry">
            <mxPoint x="349" y="570" as="sourcePoint" />
            <mxPoint x="660" y="500" as="targetPoint" />
          </mxGeometry>
        </mxCell>
        <mxCell id="YYT5KPldXvbkuwWLWnQn-73" value="N" style="resizable=0;html=1;whiteSpace=wrap;align=right;verticalAlign=bottom;fontFamily=Helvetica;fontSize=11;fontColor=default;labelBackgroundColor=default;" parent="YYT5KPldXvbkuwWLWnQn-72" connectable="0" vertex="1">
          <mxGeometry x="1" relative="1" as="geometry">
            <mxPoint x="20" y="1" as="offset" />
          </mxGeometry>
        </mxCell>
        <mxCell id="YYT5KPldXvbkuwWLWnQn-77" value="ID-Bundesland" style="ellipse;whiteSpace=wrap;html=1;align=center;fontStyle=4;" parent="1" vertex="1">
          <mxGeometry x="130" y="80" width="100" height="40" as="geometry" />
        </mxCell>
        <mxCell id="YYT5KPldXvbkuwWLWnQn-78" value="Bundesland" style="ellipse;whiteSpace=wrap;html=1;align=center;" parent="1" vertex="1">
          <mxGeometry x="249" y="80" width="100" height="40" as="geometry" />
        </mxCell>
        <mxCell id="YYT5KPldXvbkuwWLWnQn-79" value="ID-Filiale" style="ellipse;whiteSpace=wrap;html=1;align=center;fontStyle=4;" parent="1" vertex="1">
          <mxGeometry x="30" y="310" width="100" height="40" as="geometry" />
        </mxCell>
        <mxCell id="YYT5KPldXvbkuwWLWnQn-80" value="Filiale" style="ellipse;whiteSpace=wrap;html=1;align=center;" parent="1" vertex="1">
          <mxGeometry x="40" y="360" width="100" height="40" as="geometry" />
        </mxCell>
        <mxCell id="YYT5KPldXvbkuwWLWnQn-81" value="ID-Kasse" style="ellipse;whiteSpace=wrap;html=1;align=center;fontStyle=4;" parent="1" vertex="1">
          <mxGeometry x="30" y="591" width="100" height="40" as="geometry" />
        </mxCell>
        <mxCell id="YYT5KPldXvbkuwWLWnQn-82" value="Kassennr" style="ellipse;whiteSpace=wrap;html=1;align=center;" parent="1" vertex="1">
          <mxGeometry x="50" y="640" width="100" height="40" as="geometry" />
        </mxCell>
        <mxCell id="YYT5KPldXvbkuwWLWnQn-83" value="ID-Artikel" style="ellipse;whiteSpace=wrap;html=1;align=center;fontStyle=4;" parent="1" vertex="1">
          <mxGeometry x="691" y="218" width="100" height="40" as="geometry" />
        </mxCell>
        <mxCell id="YYT5KPldXvbkuwWLWnQn-84" value="Bezeichnung" style="ellipse;whiteSpace=wrap;html=1;align=center;" parent="1" vertex="1">
          <mxGeometry x="761" y="258" width="100" height="40" as="geometry" />
        </mxCell>
        <mxCell id="YYT5KPldXvbkuwWLWnQn-85" value="ID-Kategorie" style="ellipse;whiteSpace=wrap;html=1;align=center;fontStyle=4;" parent="1" vertex="1">
          <mxGeometry x="957" y="258" width="100" height="40" as="geometry" />
        </mxCell>
        <mxCell id="YYT5KPldXvbkuwWLWnQn-86" value="Kategorie" style="ellipse;whiteSpace=wrap;html=1;align=center;" parent="1" vertex="1">
          <mxGeometry x="1030" y="289" width="100" height="40" as="geometry" />
        </mxCell>
        <mxCell id="YYT5KPldXvbkuwWLWnQn-87" value="ID-Lieferant" style="ellipse;whiteSpace=wrap;html=1;align=center;fontStyle=4;" parent="1" vertex="1">
          <mxGeometry x="500" y="69" width="100" height="40" as="geometry" />
        </mxCell>
        <mxCell id="YYT5KPldXvbkuwWLWnQn-88" value="Lieferanten-&lt;div&gt;name&lt;/div&gt;" style="ellipse;whiteSpace=wrap;html=1;align=center;" parent="1" vertex="1">
          <mxGeometry x="631" y="69" width="100" height="40" as="geometry" />
        </mxCell>
        <mxCell id="YYT5KPldXvbkuwWLWnQn-89" value="Strasse" style="ellipse;whiteSpace=wrap;html=1;align=center;" parent="1" vertex="1">
          <mxGeometry x="691" y="109" width="100" height="40" as="geometry" />
        </mxCell>
        <mxCell id="YYT5KPldXvbkuwWLWnQn-90" value="&lt;span style=&quot;color: rgb(34, 34, 34); font-family: &amp;quot;Open Sans Light&amp;quot;, &amp;quot;Helvetica Neue&amp;quot;, Helvetica, Arial, FreeSans, sans-serif; letter-spacing: 0.368px; text-align: start; background-color: rgb(252, 252, 252);&quot;&gt;&lt;b style=&quot;&quot;&gt;&lt;font style=&quot;font-size: 24px;&quot;&gt;Entity-Relationship-Modell (Lidl)&lt;/font&gt;&lt;/b&gt;&lt;/span&gt;" style="text;html=1;align=center;verticalAlign=middle;whiteSpace=wrap;rounded=0;fontFamily=Helvetica;fontSize=11;fontColor=default;labelBackgroundColor=default;" parent="1" vertex="1">
          <mxGeometry x="40" y="10" width="490" height="70" as="geometry" />
        </mxCell>
        <mxCell id="YYT5KPldXvbkuwWLWnQn-91" value="&lt;span style=&quot;color: rgb(34, 34, 34); font-family: &amp;quot;Open Sans Light&amp;quot;, &amp;quot;Helvetica Neue&amp;quot;, Helvetica, Arial, FreeSans, sans-serif; letter-spacing: 0.368px; text-align: start; background-color: rgb(252, 252, 252);&quot;&gt;&lt;b style=&quot;&quot;&gt;&lt;font style=&quot;font-size: 24px;&quot;&gt;Relationenmodell (Klassendiagram falsch (Datenbankdigramm aus postgres&amp;nbsp;&lt;/font&gt;&lt;/b&gt;&lt;/span&gt;&lt;div&gt;&lt;span style=&quot;font-family: &amp;quot;Open Sans Light&amp;quot;, &amp;quot;Helvetica Neue&amp;quot;, Helvetica, Arial, FreeSans, sans-serif; letter-spacing: 0.368px; text-align: start; background-color: rgb(252, 252, 252);&quot;&gt;&lt;b style=&quot;&quot;&gt;&lt;font style=&quot;font-size: 24px; color: rgb(153, 76, 0);&quot;&gt;Noch Datentypen einfÃ¼gen&lt;/font&gt;&lt;/b&gt;&lt;/span&gt;&lt;/div&gt;" style="text;html=1;align=center;verticalAlign=middle;whiteSpace=wrap;rounded=0;fontFamily=Helvetica;fontSize=11;fontColor=default;labelBackgroundColor=default;" parent="1" vertex="1">
          <mxGeometry x="160" y="910" width="360" height="70" as="geometry" />
        </mxCell>
        <mxCell id="YYT5KPldXvbkuwWLWnQn-92" value="Filiale" style="swimlane;childLayout=stackLayout;horizontal=1;startSize=50;horizontalStack=0;rounded=1;fontSize=14;fontStyle=0;strokeWidth=2;resizeParent=0;resizeLast=1;shadow=0;dashed=0;align=center;arcSize=4;whiteSpace=wrap;html=1;fontFamily=Helvetica;fontColor=default;labelBackgroundColor=default;" parent="1" vertex="1">
          <mxGeometry x="30" y="1180" width="160" height="120" as="geometry" />
        </mxCell>
        <mxCell id="YYT5KPldXvbkuwWLWnQn-93" value="&lt;u&gt;ID-Filiale&lt;/u&gt;&lt;div&gt;Filiale&lt;/div&gt;&lt;div&gt;ID-Bundesland (FK)&lt;/div&gt;" style="align=left;strokeColor=none;fillColor=none;spacingLeft=4;spacingRight=4;fontSize=12;verticalAlign=top;resizable=0;rotatable=0;part=1;html=1;whiteSpace=wrap;fontFamily=Helvetica;fontColor=default;labelBackgroundColor=default;" parent="YYT5KPldXvbkuwWLWnQn-92" vertex="1">
          <mxGeometry y="50" width="160" height="70" as="geometry" />
        </mxCell>
        <mxCell id="YYT5KPldXvbkuwWLWnQn-94" value="Bundesland" style="swimlane;childLayout=stackLayout;horizontal=1;startSize=50;horizontalStack=0;rounded=1;fontSize=14;fontStyle=0;strokeWidth=2;resizeParent=0;resizeLast=1;shadow=0;dashed=0;align=center;arcSize=4;whiteSpace=wrap;html=1;fontFamily=Helvetica;fontColor=default;labelBackgroundColor=default;" parent="1" vertex="1">
          <mxGeometry x="20" y="990" width="160" height="120" as="geometry" />
        </mxCell>
        <mxCell id="YYT5KPldXvbkuwWLWnQn-95" value="&lt;div&gt;&lt;u&gt;ID-Bundesland&lt;/u&gt;&lt;span style=&quot;text-align: center; background-color: light-dark(#ffffff, var(--ge-dark-color, #121212)); color: light-dark(rgb(0, 0, 0), rgb(255, 255, 255));&quot;&gt;&lt;/span&gt;&lt;/div&gt;&lt;div&gt;&lt;span style=&quot;text-align: center; background-color: light-dark(#ffffff, var(--ge-dark-color, #121212)); color: light-dark(rgb(0, 0, 0), rgb(255, 255, 255));&quot;&gt;Bundesland&lt;/span&gt;&lt;/div&gt;" style="align=left;strokeColor=none;fillColor=none;spacingLeft=4;spacingRight=4;fontSize=12;verticalAlign=top;resizable=0;rotatable=0;part=1;html=1;whiteSpace=wrap;fontFamily=Helvetica;fontColor=default;labelBackgroundColor=default;" parent="YYT5KPldXvbkuwWLWnQn-94" vertex="1">
          <mxGeometry y="50" width="160" height="70" as="geometry" />
        </mxCell>
        <mxCell id="YYT5KPldXvbkuwWLWnQn-96" value="Kasse" style="swimlane;childLayout=stackLayout;horizontal=1;startSize=50;horizontalStack=0;rounded=1;fontSize=14;fontStyle=0;strokeWidth=2;resizeParent=0;resizeLast=1;shadow=0;dashed=0;align=center;arcSize=4;whiteSpace=wrap;html=1;fontFamily=Helvetica;fontColor=default;labelBackgroundColor=default;" parent="1" vertex="1">
          <mxGeometry x="241" y="1180" width="160" height="120" as="geometry" />
        </mxCell>
        <mxCell id="YYT5KPldXvbkuwWLWnQn-97" value="&lt;u&gt;ID-Kasse&lt;/u&gt;&lt;br&gt;Kassennr&lt;div&gt;ID-Filiale&amp;nbsp;&lt;span style=&quot;background-color: light-dark(#ffffff, var(--ge-dark-color, #121212)); color: light-dark(rgb(0, 0, 0), rgb(255, 255, 255));&quot;&gt;(FK)&lt;/span&gt;&lt;/div&gt;" style="align=left;strokeColor=none;fillColor=none;spacingLeft=4;spacingRight=4;fontSize=12;verticalAlign=top;resizable=0;rotatable=0;part=1;html=1;whiteSpace=wrap;fontFamily=Helvetica;fontColor=default;labelBackgroundColor=default;" parent="YYT5KPldXvbkuwWLWnQn-96" vertex="1">
          <mxGeometry y="50" width="160" height="70" as="geometry" />
        </mxCell>
        <mxCell id="YYT5KPldXvbkuwWLWnQn-98" value="Artikel" style="swimlane;childLayout=stackLayout;horizontal=1;startSize=50;horizontalStack=0;rounded=1;fontSize=14;fontStyle=0;strokeWidth=2;resizeParent=0;resizeLast=1;shadow=0;dashed=0;align=center;arcSize=4;whiteSpace=wrap;html=1;fontFamily=Helvetica;fontColor=default;labelBackgroundColor=default;" parent="1" vertex="1">
          <mxGeometry x="710" y="1174" width="160" height="156" as="geometry" />
        </mxCell>
        <mxCell id="YYT5KPldXvbkuwWLWnQn-99" value="&lt;u&gt;ID-Artikel&lt;/u&gt;&lt;div&gt;&lt;span style=&quot;background-color: light-dark(#ffffff, var(--ge-dark-color, #121212)); color: light-dark(rgb(0, 0, 0), rgb(255, 255, 255));&quot;&gt;ID-Lieferant (FK)&lt;/span&gt;&lt;/div&gt;&lt;div&gt;ID-Kategorie (FK)&lt;/div&gt;&lt;div&gt;&lt;div&gt;Bezeichnung&lt;/div&gt;&lt;div&gt;Preis&lt;/div&gt;&lt;/div&gt;&lt;div&gt;&lt;br&gt;&lt;/div&gt;" style="align=left;strokeColor=none;fillColor=none;spacingLeft=4;spacingRight=4;fontSize=12;verticalAlign=top;resizable=0;rotatable=0;part=1;html=1;whiteSpace=wrap;fontFamily=Helvetica;fontColor=default;labelBackgroundColor=default;" parent="YYT5KPldXvbkuwWLWnQn-98" vertex="1">
          <mxGeometry y="50" width="160" height="106" as="geometry" />
        </mxCell>
        <mxCell id="YYT5KPldXvbkuwWLWnQn-100" value="Kategorie" style="swimlane;childLayout=stackLayout;horizontal=1;startSize=50;horizontalStack=0;rounded=1;fontSize=14;fontStyle=0;strokeWidth=2;resizeParent=0;resizeLast=1;shadow=0;dashed=0;align=center;arcSize=4;whiteSpace=wrap;html=1;fontFamily=Helvetica;fontColor=default;labelBackgroundColor=default;" parent="1" vertex="1">
          <mxGeometry x="950" y="1178" width="160" height="120" as="geometry" />
        </mxCell>
        <mxCell id="YYT5KPldXvbkuwWLWnQn-101" value="&lt;u&gt;ID-Kategorie&lt;/u&gt;&lt;div&gt;Kategorie&lt;/div&gt;" style="align=left;strokeColor=none;fillColor=none;spacingLeft=4;spacingRight=4;fontSize=12;verticalAlign=top;resizable=0;rotatable=0;part=1;html=1;whiteSpace=wrap;fontFamily=Helvetica;fontColor=default;labelBackgroundColor=default;" parent="YYT5KPldXvbkuwWLWnQn-100" vertex="1">
          <mxGeometry y="50" width="160" height="70" as="geometry" />
        </mxCell>
        <mxCell id="YYT5KPldXvbkuwWLWnQn-102" value="Lieferant" style="swimlane;childLayout=stackLayout;horizontal=1;startSize=50;horizontalStack=0;rounded=1;fontSize=14;fontStyle=0;strokeWidth=2;resizeParent=0;resizeLast=1;shadow=0;dashed=0;align=center;arcSize=4;whiteSpace=wrap;html=1;fontFamily=Helvetica;fontColor=default;labelBackgroundColor=default;" parent="1" vertex="1">
          <mxGeometry x="710" y="980" width="160" height="140" as="geometry" />
        </mxCell>
        <mxCell id="YYT5KPldXvbkuwWLWnQn-103" value="&lt;u&gt;ID-Lieferant&lt;/u&gt;&lt;div&gt;Lieferantenname&lt;/div&gt;&lt;div&gt;Strasse&lt;/div&gt;&lt;div&gt;PLZ&lt;/div&gt;&lt;div&gt;Stadt&lt;/div&gt;" style="align=left;strokeColor=none;fillColor=none;spacingLeft=4;spacingRight=4;fontSize=12;verticalAlign=top;resizable=0;rotatable=0;part=1;html=1;whiteSpace=wrap;fontFamily=Helvetica;fontColor=default;labelBackgroundColor=default;" parent="YYT5KPldXvbkuwWLWnQn-102" vertex="1">
          <mxGeometry y="50" width="160" height="90" as="geometry" />
        </mxCell>
        <mxCell id="YYT5KPldXvbkuwWLWnQn-106" value="" style="endArrow=none;html=1;rounded=0;strokeColor=default;align=center;verticalAlign=middle;fontFamily=Helvetica;fontSize=11;fontColor=default;labelBackgroundColor=default;edgeStyle=orthogonalEdgeStyle;entryX=0.5;entryY=1;entryDx=0;entryDy=0;exitX=0.438;exitY=0;exitDx=0;exitDy=0;exitPerimeter=0;" parent="1" source="YYT5KPldXvbkuwWLWnQn-92" target="YYT5KPldXvbkuwWLWnQn-95" edge="1">
          <mxGeometry relative="1" as="geometry">
            <mxPoint x="650" y="860" as="sourcePoint" />
            <mxPoint x="810" y="860" as="targetPoint" />
            <Array as="points">
              <mxPoint x="100" y="1160" />
              <mxPoint x="100" y="1160" />
            </Array>
          </mxGeometry>
        </mxCell>
        <mxCell id="YYT5KPldXvbkuwWLWnQn-107" value="1" style="resizable=0;html=1;whiteSpace=wrap;align=right;verticalAlign=bottom;fontFamily=Helvetica;fontSize=11;fontColor=default;labelBackgroundColor=default;" parent="YYT5KPldXvbkuwWLWnQn-106" connectable="0" vertex="1">
          <mxGeometry x="1" relative="1" as="geometry">
            <mxPoint x="10" as="offset" />
          </mxGeometry>
        </mxCell>
        <mxCell id="YYT5KPldXvbkuwWLWnQn-108" value="N" style="edgeLabel;html=1;align=center;verticalAlign=middle;resizable=0;points=[];fontFamily=Helvetica;fontSize=11;fontColor=default;labelBackgroundColor=default;" parent="YYT5KPldXvbkuwWLWnQn-106" vertex="1" connectable="0">
          <mxGeometry x="-0.7937" y="-1" relative="1" as="geometry">
            <mxPoint x="-2" y="-6" as="offset" />
          </mxGeometry>
        </mxCell>
        <mxCell id="YYT5KPldXvbkuwWLWnQn-109" value="" style="endArrow=none;html=1;rounded=0;strokeColor=default;align=center;verticalAlign=middle;fontFamily=Helvetica;fontSize=11;fontColor=default;labelBackgroundColor=default;edgeStyle=orthogonalEdgeStyle;entryX=1;entryY=0.25;entryDx=0;entryDy=0;exitX=0;exitY=0.25;exitDx=0;exitDy=0;" parent="1" source="YYT5KPldXvbkuwWLWnQn-97" target="YYT5KPldXvbkuwWLWnQn-93" edge="1">
          <mxGeometry relative="1" as="geometry">
            <mxPoint x="280" y="1210" as="sourcePoint" />
            <mxPoint x="200" y="1210" as="targetPoint" />
          </mxGeometry>
        </mxCell>
        <mxCell id="YYT5KPldXvbkuwWLWnQn-110" value="1" style="resizable=0;html=1;whiteSpace=wrap;align=right;verticalAlign=bottom;fontFamily=Helvetica;fontSize=11;fontColor=default;labelBackgroundColor=default;" parent="YYT5KPldXvbkuwWLWnQn-109" connectable="0" vertex="1">
          <mxGeometry x="1" relative="1" as="geometry">
            <mxPoint x="10" as="offset" />
          </mxGeometry>
        </mxCell>
        <mxCell id="YYT5KPldXvbkuwWLWnQn-111" value="N" style="edgeLabel;html=1;align=center;verticalAlign=middle;resizable=0;points=[];fontFamily=Helvetica;fontSize=11;fontColor=default;labelBackgroundColor=default;" parent="YYT5KPldXvbkuwWLWnQn-109" vertex="1" connectable="0">
          <mxGeometry x="-0.7937" y="-1" relative="1" as="geometry">
            <mxPoint as="offset" />
          </mxGeometry>
        </mxCell>
        <mxCell id="YYT5KPldXvbkuwWLWnQn-118" value="" style="endArrow=none;html=1;rounded=0;strokeColor=default;align=center;verticalAlign=middle;fontFamily=Helvetica;fontSize=11;fontColor=default;labelBackgroundColor=default;edgeStyle=orthogonalEdgeStyle;entryX=0.5;entryY=1;entryDx=0;entryDy=0;" parent="1" source="YYT5KPldXvbkuwWLWnQn-98" target="YYT5KPldXvbkuwWLWnQn-103" edge="1">
          <mxGeometry relative="1" as="geometry">
            <mxPoint x="740" y="1241" as="sourcePoint" />
            <mxPoint x="670" y="1240" as="targetPoint" />
          </mxGeometry>
        </mxCell>
        <mxCell id="YYT5KPldXvbkuwWLWnQn-119" value="1" style="resizable=0;html=1;whiteSpace=wrap;align=right;verticalAlign=bottom;fontFamily=Helvetica;fontSize=11;fontColor=default;labelBackgroundColor=default;" parent="YYT5KPldXvbkuwWLWnQn-118" connectable="0" vertex="1">
          <mxGeometry x="1" relative="1" as="geometry">
            <mxPoint y="20" as="offset" />
          </mxGeometry>
        </mxCell>
        <mxCell id="YYT5KPldXvbkuwWLWnQn-120" value="N" style="edgeLabel;html=1;align=center;verticalAlign=middle;resizable=0;points=[];fontFamily=Helvetica;fontSize=11;fontColor=default;labelBackgroundColor=default;" parent="YYT5KPldXvbkuwWLWnQn-118" vertex="1" connectable="0">
          <mxGeometry x="-0.7937" y="-1" relative="1" as="geometry">
            <mxPoint y="-8" as="offset" />
          </mxGeometry>
        </mxCell>
        <mxCell id="YYT5KPldXvbkuwWLWnQn-121" value="" style="endArrow=none;html=1;rounded=0;strokeColor=default;align=center;verticalAlign=middle;fontFamily=Helvetica;fontSize=11;fontColor=default;labelBackgroundColor=default;edgeStyle=orthogonalEdgeStyle;entryX=-0.017;entryY=0.133;entryDx=0;entryDy=0;exitX=1.03;exitY=0.133;exitDx=0;exitDy=0;exitPerimeter=0;entryPerimeter=0;" parent="1" source="YYT5KPldXvbkuwWLWnQn-99" target="YYT5KPldXvbkuwWLWnQn-101" edge="1">
          <mxGeometry relative="1" as="geometry">
            <mxPoint x="970" y="1080" as="sourcePoint" />
            <mxPoint x="900" y="1079" as="targetPoint" />
          </mxGeometry>
        </mxCell>
        <mxCell id="YYT5KPldXvbkuwWLWnQn-122" value="1" style="resizable=0;html=1;whiteSpace=wrap;align=right;verticalAlign=bottom;fontFamily=Helvetica;fontSize=11;fontColor=default;labelBackgroundColor=default;" parent="YYT5KPldXvbkuwWLWnQn-121" connectable="0" vertex="1">
          <mxGeometry x="1" relative="1" as="geometry" />
        </mxCell>
        <mxCell id="YYT5KPldXvbkuwWLWnQn-123" value="N" style="edgeLabel;html=1;align=center;verticalAlign=middle;resizable=0;points=[];fontFamily=Helvetica;fontSize=11;fontColor=default;labelBackgroundColor=default;" parent="YYT5KPldXvbkuwWLWnQn-121" vertex="1" connectable="0">
          <mxGeometry x="-0.7937" y="-1" relative="1" as="geometry">
            <mxPoint as="offset" />
          </mxGeometry>
        </mxCell>
        <mxCell id="YYT5KPldXvbkuwWLWnQn-136" value="verkauft" style="swimlane;childLayout=stackLayout;horizontal=1;startSize=50;horizontalStack=0;rounded=1;fontSize=14;fontStyle=0;strokeWidth=2;resizeParent=0;resizeLast=1;shadow=0;dashed=0;align=center;arcSize=4;whiteSpace=wrap;html=1;fontFamily=Helvetica;fontColor=default;labelBackgroundColor=default;" parent="1" vertex="1">
          <mxGeometry x="457" y="1172" width="160" height="160" as="geometry" />
        </mxCell>
        <mxCell id="YYT5KPldXvbkuwWLWnQn-137" value="&lt;u&gt;ID-Beleg&lt;/u&gt;&lt;div&gt;ID-Kasse (FK)&lt;/div&gt;&lt;div&gt;ID-Artikel&amp;nbsp;&lt;span style=&quot;background-color: light-dark(#ffffff, var(--ge-dark-color, #121212)); color: light-dark(rgb(0, 0, 0), rgb(255, 255, 255));&quot;&gt;(FK)&lt;/span&gt;&lt;/div&gt;&lt;div&gt;&lt;span style=&quot;background-color: light-dark(#ffffff, var(--ge-dark-color, #121212)); color: light-dark(rgb(0, 0, 0), rgb(255, 255, 255));&quot;&gt;Datum-Uhrzeit&lt;/span&gt;&lt;/div&gt;&lt;div&gt;&lt;span style=&quot;background-color: light-dark(#ffffff, var(--ge-dark-color, #121212)); color: light-dark(rgb(0, 0, 0), rgb(255, 255, 255));&quot;&gt;Menge&amp;nbsp;&lt;/span&gt;&lt;/div&gt;&lt;div&gt;&lt;br&gt;&lt;/div&gt;" style="align=left;strokeColor=none;fillColor=none;spacingLeft=4;spacingRight=4;fontSize=12;verticalAlign=top;resizable=0;rotatable=0;part=1;html=1;whiteSpace=wrap;fontFamily=Helvetica;fontColor=default;labelBackgroundColor=default;" parent="YYT5KPldXvbkuwWLWnQn-136" vertex="1">
          <mxGeometry y="50" width="160" height="110" as="geometry" />
        </mxCell>
        <mxCell id="YYT5KPldXvbkuwWLWnQn-140" value="" style="endArrow=none;html=1;rounded=0;strokeColor=default;align=center;verticalAlign=middle;fontFamily=Helvetica;fontSize=11;fontColor=default;labelBackgroundColor=default;edgeStyle=orthogonalEdgeStyle;entryX=0.5;entryY=1;entryDx=0;entryDy=0;exitX=0.25;exitY=0;exitDx=0;exitDy=0;" parent="1" source="YYT5KPldXvbkuwWLWnQn-44" target="YYT5KPldXvbkuwWLWnQn-77" edge="1">
          <mxGeometry relative="1" as="geometry">
            <mxPoint x="200" y="180" as="sourcePoint" />
            <mxPoint x="360" y="180" as="targetPoint" />
          </mxGeometry>
        </mxCell>
        <mxCell id="YYT5KPldXvbkuwWLWnQn-141" value="" style="endArrow=none;html=1;rounded=0;strokeColor=default;align=center;verticalAlign=middle;fontFamily=Helvetica;fontSize=11;fontColor=default;labelBackgroundColor=default;edgeStyle=orthogonalEdgeStyle;exitX=1;exitY=0.5;exitDx=0;exitDy=0;entryX=0;entryY=0.25;entryDx=0;entryDy=0;" parent="1" source="YYT5KPldXvbkuwWLWnQn-79" target="YYT5KPldXvbkuwWLWnQn-43" edge="1">
          <mxGeometry relative="1" as="geometry">
            <mxPoint x="320" y="170" as="sourcePoint" />
            <mxPoint x="409" y="170" as="targetPoint" />
          </mxGeometry>
        </mxCell>
        <mxCell id="YYT5KPldXvbkuwWLWnQn-142" value="" style="endArrow=none;html=1;rounded=0;strokeColor=default;align=center;verticalAlign=middle;fontFamily=Helvetica;fontSize=11;fontColor=default;labelBackgroundColor=default;edgeStyle=orthogonalEdgeStyle;exitX=0.5;exitY=1;exitDx=0;exitDy=0;entryX=0.75;entryY=0;entryDx=0;entryDy=0;" parent="1" source="YYT5KPldXvbkuwWLWnQn-78" target="YYT5KPldXvbkuwWLWnQn-44" edge="1">
          <mxGeometry relative="1" as="geometry">
            <mxPoint x="311" y="150" as="sourcePoint" />
            <mxPoint x="400" y="150" as="targetPoint" />
          </mxGeometry>
        </mxCell>
        <mxCell id="YYT5KPldXvbkuwWLWnQn-143" value="" style="endArrow=none;html=1;rounded=0;strokeColor=default;align=center;verticalAlign=middle;fontFamily=Helvetica;fontSize=11;fontColor=default;labelBackgroundColor=default;edgeStyle=orthogonalEdgeStyle;exitX=1;exitY=0.5;exitDx=0;exitDy=0;entryX=0;entryY=0.75;entryDx=0;entryDy=0;" parent="1" source="YYT5KPldXvbkuwWLWnQn-80" target="YYT5KPldXvbkuwWLWnQn-43" edge="1">
          <mxGeometry relative="1" as="geometry">
            <mxPoint x="150" y="380" as="sourcePoint" />
            <mxPoint x="211" y="400" as="targetPoint" />
          </mxGeometry>
        </mxCell>
        <mxCell id="YYT5KPldXvbkuwWLWnQn-144" value="" style="endArrow=none;html=1;rounded=0;strokeColor=default;align=center;verticalAlign=middle;fontFamily=Helvetica;fontSize=11;fontColor=default;labelBackgroundColor=default;edgeStyle=orthogonalEdgeStyle;exitX=1.024;exitY=0.495;exitDx=0;exitDy=0;exitPerimeter=0;" parent="1" source="YYT5KPldXvbkuwWLWnQn-81" edge="1">
          <mxGeometry relative="1" as="geometry">
            <mxPoint x="170" y="600" as="sourcePoint" />
            <mxPoint x="221" y="590" as="targetPoint" />
            <Array as="points">
              <mxPoint x="220" y="611" />
              <mxPoint x="220" y="591" />
              <mxPoint x="221" y="591" />
            </Array>
          </mxGeometry>
        </mxCell>
        <mxCell id="YYT5KPldXvbkuwWLWnQn-145" value="" style="endArrow=none;html=1;rounded=0;strokeColor=default;align=center;verticalAlign=middle;fontFamily=Helvetica;fontSize=11;fontColor=default;labelBackgroundColor=default;edgeStyle=orthogonalEdgeStyle;exitX=1;exitY=0.5;exitDx=0;exitDy=0;entryX=0.5;entryY=1;entryDx=0;entryDy=0;" parent="1" source="YYT5KPldXvbkuwWLWnQn-82" target="YYT5KPldXvbkuwWLWnQn-40" edge="1">
          <mxGeometry relative="1" as="geometry">
            <mxPoint x="175.49" y="612" as="sourcePoint" />
            <mxPoint x="260" y="610" as="targetPoint" />
            <Array as="points">
              <mxPoint x="240" y="660" />
            </Array>
          </mxGeometry>
        </mxCell>
        <mxCell id="YYT5KPldXvbkuwWLWnQn-146" value="" style="endArrow=none;html=1;rounded=0;strokeColor=default;align=center;verticalAlign=middle;fontFamily=Helvetica;fontSize=11;fontColor=default;labelBackgroundColor=default;edgeStyle=orthogonalEdgeStyle;exitX=0.5;exitY=1;exitDx=0;exitDy=0;entryX=0.25;entryY=0;entryDx=0;entryDy=0;" parent="1" source="YYT5KPldXvbkuwWLWnQn-87" target="YYT5KPldXvbkuwWLWnQn-56" edge="1">
          <mxGeometry relative="1" as="geometry">
            <mxPoint x="491" y="329" as="sourcePoint" />
            <mxPoint x="651" y="329" as="targetPoint" />
          </mxGeometry>
        </mxCell>
        <mxCell id="YYT5KPldXvbkuwWLWnQn-147" value="" style="endArrow=none;html=1;rounded=0;strokeColor=default;align=center;verticalAlign=middle;fontFamily=Helvetica;fontSize=11;fontColor=default;labelBackgroundColor=default;edgeStyle=orthogonalEdgeStyle;exitX=0.5;exitY=1;exitDx=0;exitDy=0;entryX=1;entryY=0.5;entryDx=0;entryDy=0;" parent="1" source="YYT5KPldXvbkuwWLWnQn-89" target="YYT5KPldXvbkuwWLWnQn-56" edge="1">
          <mxGeometry relative="1" as="geometry">
            <mxPoint x="691" y="189" as="sourcePoint" />
            <mxPoint x="851" y="189" as="targetPoint" />
          </mxGeometry>
        </mxCell>
        <mxCell id="YYT5KPldXvbkuwWLWnQn-148" value="" style="endArrow=none;html=1;rounded=0;strokeColor=default;align=center;verticalAlign=middle;fontFamily=Helvetica;fontSize=11;fontColor=default;labelBackgroundColor=default;edgeStyle=orthogonalEdgeStyle;exitX=0.5;exitY=1;exitDx=0;exitDy=0;entryX=0.5;entryY=0;entryDx=0;entryDy=0;" parent="1" source="YYT5KPldXvbkuwWLWnQn-88" target="YYT5KPldXvbkuwWLWnQn-56" edge="1">
          <mxGeometry relative="1" as="geometry">
            <mxPoint x="691" y="179" as="sourcePoint" />
            <mxPoint x="851" y="179" as="targetPoint" />
          </mxGeometry>
        </mxCell>
        <mxCell id="YYT5KPldXvbkuwWLWnQn-150" value="" style="endArrow=none;html=1;rounded=0;strokeColor=default;align=center;verticalAlign=middle;fontFamily=Helvetica;fontSize=11;fontColor=default;labelBackgroundColor=default;edgeStyle=orthogonalEdgeStyle;exitX=1;exitY=0.25;exitDx=0;exitDy=0;entryX=0.476;entryY=0.971;entryDx=0;entryDy=0;entryPerimeter=0;" parent="1" source="YYT5KPldXvbkuwWLWnQn-42" target="YYT5KPldXvbkuwWLWnQn-84" edge="1">
          <mxGeometry relative="1" as="geometry">
            <mxPoint x="691" y="359" as="sourcePoint" />
            <mxPoint x="851" y="359" as="targetPoint" />
          </mxGeometry>
        </mxCell>
        <mxCell id="YYT5KPldXvbkuwWLWnQn-151" value="" style="endArrow=none;html=1;rounded=0;strokeColor=default;align=center;verticalAlign=middle;fontFamily=Helvetica;fontSize=11;fontColor=default;labelBackgroundColor=default;edgeStyle=orthogonalEdgeStyle;exitX=0.5;exitY=1;exitDx=0;exitDy=0;entryX=0.25;entryY=0;entryDx=0;entryDy=0;" parent="1" source="YYT5KPldXvbkuwWLWnQn-85" target="YYT5KPldXvbkuwWLWnQn-58" edge="1">
          <mxGeometry relative="1" as="geometry">
            <mxPoint x="1061" y="339" as="sourcePoint" />
            <mxPoint x="1221" y="339" as="targetPoint" />
          </mxGeometry>
        </mxCell>
        <mxCell id="YYT5KPldXvbkuwWLWnQn-152" value="" style="endArrow=none;html=1;rounded=0;strokeColor=default;align=center;verticalAlign=middle;fontFamily=Helvetica;fontSize=11;fontColor=default;labelBackgroundColor=default;edgeStyle=orthogonalEdgeStyle;exitX=0.699;exitY=-0.012;exitDx=0;exitDy=0;exitPerimeter=0;entryX=0.5;entryY=1;entryDx=0;entryDy=0;" parent="1" source="YYT5KPldXvbkuwWLWnQn-58" target="YYT5KPldXvbkuwWLWnQn-86" edge="1">
          <mxGeometry relative="1" as="geometry">
            <mxPoint x="1061" y="339" as="sourcePoint" />
            <mxPoint x="1132" y="309" as="targetPoint" />
          </mxGeometry>
        </mxCell>
        <mxCell id="YYT5KPldXvbkuwWLWnQn-153" value="" style="endArrow=none;html=1;rounded=0;strokeColor=default;align=center;verticalAlign=middle;fontFamily=Helvetica;fontSize=11;fontColor=default;labelBackgroundColor=default;edgeStyle=orthogonalEdgeStyle;exitX=0.799;exitY=0.019;exitDx=0;exitDy=0;entryX=0.476;entryY=0.971;entryDx=0;entryDy=0;entryPerimeter=0;exitPerimeter=0;" parent="1" source="YYT5KPldXvbkuwWLWnQn-42" edge="1">
          <mxGeometry relative="1" as="geometry">
            <mxPoint x="601" y="321" as="sourcePoint" />
            <mxPoint x="738" y="258" as="targetPoint" />
          </mxGeometry>
        </mxCell>
        <mxCell id="QBYk8rgSqJVbzHIFE_xx-4" value="Menge" style="ellipse;whiteSpace=wrap;html=1;align=center;" parent="1" vertex="1">
          <mxGeometry x="290" y="650" width="100" height="40" as="geometry" />
        </mxCell>
        <mxCell id="QBYk8rgSqJVbzHIFE_xx-5" value="Preis" style="ellipse;whiteSpace=wrap;html=1;align=center;" parent="1" vertex="1">
          <mxGeometry x="691" y="430" width="100" height="40" as="geometry" />
        </mxCell>
        <mxCell id="QBYk8rgSqJVbzHIFE_xx-6" value="verkauft" style="shape=rhombus;perimeter=rhombusPerimeter;whiteSpace=wrap;html=1;align=center;" parent="1" vertex="1">
          <mxGeometry x="365" y="540" width="120" height="60" as="geometry" />
        </mxCell>
        <mxCell id="QBYk8rgSqJVbzHIFE_xx-7" value="" style="group" parent="1" vertex="1" connectable="0">
          <mxGeometry x="1040" width="120" height="229" as="geometry" />
        </mxCell>
        <mxCell id="1BJ3c-md4-SRnJtdKCkP-4" value="" style="rounded=1;whiteSpace=wrap;html=1;fontFamily=Helvetica;fontSize=11;fontColor=default;labelBackgroundColor=default;fillColor=#E6E6E6;" parent="QBYk8rgSqJVbzHIFE_xx-7" vertex="1">
          <mxGeometry width="120" height="229" as="geometry" />
        </mxCell>
        <mxCell id="YYT5KPldXvbkuwWLWnQn-3" value="Entity" style="rounded=1;arcSize=10;whiteSpace=wrap;html=1;align=center;fillColor=#006633;" parent="QBYk8rgSqJVbzHIFE_xx-7" vertex="1">
          <mxGeometry x="17.142857142857142" y="25.444444444444443" width="85.71428571428571" height="33.925925925925924" as="geometry" />
        </mxCell>
        <mxCell id="YYT5KPldXvbkuwWLWnQn-4" value="Attribute" style="ellipse;whiteSpace=wrap;html=1;align=center;" parent="QBYk8rgSqJVbzHIFE_xx-7" vertex="1">
          <mxGeometry x="17.142857142857142" y="110.25925925925925" width="85.71428571428571" height="33.925925925925924" as="geometry" />
        </mxCell>
        <mxCell id="YYT5KPldXvbkuwWLWnQn-5" value="Attribute" style="ellipse;whiteSpace=wrap;html=1;align=center;fontStyle=4;" parent="QBYk8rgSqJVbzHIFE_xx-7" vertex="1">
          <mxGeometry x="17.142857142857142" y="67.85185185185185" width="85.71428571428571" height="33.925925925925924" as="geometry" />
        </mxCell>
        <mxCell id="YYT5KPldXvbkuwWLWnQn-25" value="Relationship" style="shape=rhombus;perimeter=rhombusPerimeter;whiteSpace=wrap;html=1;align=center;" parent="QBYk8rgSqJVbzHIFE_xx-7" vertex="1">
          <mxGeometry x="8.571428571428571" y="152.66666666666666" width="102.85714285714285" height="50.888888888888886" as="geometry" />
        </mxCell>
        <mxCell id="YYT5KPldXvbkuwWLWnQn-76" value="Legende" style="text;html=1;align=center;verticalAlign=middle;whiteSpace=wrap;rounded=0;fontFamily=Helvetica;fontSize=11;fontColor=default;labelBackgroundColor=default;" parent="QBYk8rgSqJVbzHIFE_xx-7" vertex="1">
          <mxGeometry x="34.285714285714285" width="51.42857142857142" height="25.444444444444443" as="geometry" />
        </mxCell>
        <mxCell id="QBYk8rgSqJVbzHIFE_xx-8" value="Datum-Uhrzeit&lt;div&gt;UTC&lt;/div&gt;" style="ellipse;whiteSpace=wrap;html=1;align=center;" parent="1" vertex="1">
          <mxGeometry x="330" y="700" width="100" height="40" as="geometry" />
        </mxCell>
        <mxCell id="QBYk8rgSqJVbzHIFE_xx-9" value="" style="endArrow=none;html=1;rounded=0;strokeColor=default;align=center;verticalAlign=middle;fontFamily=Helvetica;fontSize=11;fontColor=default;labelBackgroundColor=default;edgeStyle=orthogonalEdgeStyle;exitX=1;exitY=0.5;exitDx=0;exitDy=0;entryX=0.5;entryY=1;entryDx=0;entryDy=0;" parent="1" source="QBYk8rgSqJVbzHIFE_xx-6" target="YYT5KPldXvbkuwWLWnQn-42" edge="1">
          <mxGeometry relative="1" as="geometry">
            <mxPoint x="530" y="609" as="sourcePoint" />
            <mxPoint x="550" y="570" as="targetPoint" />
          </mxGeometry>
        </mxCell>
        <mxCell id="QBYk8rgSqJVbzHIFE_xx-10" value="M" style="resizable=0;html=1;whiteSpace=wrap;align=right;verticalAlign=bottom;fontFamily=Helvetica;fontSize=11;fontColor=default;labelBackgroundColor=default;" parent="QBYk8rgSqJVbzHIFE_xx-9" connectable="0" vertex="1">
          <mxGeometry x="1" relative="1" as="geometry">
            <mxPoint x="-10" y="24" as="offset" />
          </mxGeometry>
        </mxCell>
        <mxCell id="QBYk8rgSqJVbzHIFE_xx-11" value="" style="endArrow=none;html=1;rounded=0;strokeColor=default;align=center;verticalAlign=middle;fontFamily=Helvetica;fontSize=11;fontColor=default;labelBackgroundColor=default;edgeStyle=orthogonalEdgeStyle;exitX=0.5;exitY=0;exitDx=0;exitDy=0;entryX=0.5;entryY=1;entryDx=0;entryDy=0;" parent="1" source="QBYk8rgSqJVbzHIFE_xx-8" target="QBYk8rgSqJVbzHIFE_xx-6" edge="1">
          <mxGeometry relative="1" as="geometry">
            <mxPoint x="580" y="530" as="sourcePoint" />
            <mxPoint x="740" y="530" as="targetPoint" />
            <Array as="points">
              <mxPoint x="425" y="700" />
            </Array>
          </mxGeometry>
        </mxCell>
        <mxCell id="QBYk8rgSqJVbzHIFE_xx-15" value="" style="endArrow=none;html=1;rounded=0;strokeColor=default;align=center;verticalAlign=middle;fontFamily=Helvetica;fontSize=11;fontColor=default;labelBackgroundColor=default;edgeStyle=orthogonalEdgeStyle;entryX=0.5;entryY=0;entryDx=0;entryDy=0;exitX=0.325;exitY=0.832;exitDx=0;exitDy=0;exitPerimeter=0;" parent="1" source="QBYk8rgSqJVbzHIFE_xx-6" target="QBYk8rgSqJVbzHIFE_xx-4" edge="1">
          <mxGeometry relative="1" as="geometry">
            <mxPoint x="420" y="570" as="sourcePoint" />
            <mxPoint x="580" y="570" as="targetPoint" />
          </mxGeometry>
        </mxCell>
        <mxCell id="QBYk8rgSqJVbzHIFE_xx-16" value="" style="endArrow=none;html=1;rounded=0;strokeColor=default;align=center;verticalAlign=middle;fontFamily=Helvetica;fontSize=11;fontColor=default;labelBackgroundColor=default;edgeStyle=orthogonalEdgeStyle;entryX=0.5;entryY=0;entryDx=0;entryDy=0;exitX=0.75;exitY=1;exitDx=0;exitDy=0;" parent="1" source="YYT5KPldXvbkuwWLWnQn-42" target="QBYk8rgSqJVbzHIFE_xx-5" edge="1">
          <mxGeometry relative="1" as="geometry">
            <mxPoint x="420" y="570" as="sourcePoint" />
            <mxPoint x="580" y="570" as="targetPoint" />
          </mxGeometry>
        </mxCell>
        <mxCell id="QBYk8rgSqJVbzHIFE_xx-17" value="Stadt" style="ellipse;whiteSpace=wrap;html=1;align=center;" parent="1" vertex="1">
          <mxGeometry x="790" y="130" width="100" height="40" as="geometry" />
        </mxCell>
        <mxCell id="QBYk8rgSqJVbzHIFE_xx-18" value="" style="endArrow=none;html=1;rounded=0;strokeColor=default;align=center;verticalAlign=middle;fontFamily=Helvetica;fontSize=11;fontColor=default;labelBackgroundColor=default;edgeStyle=orthogonalEdgeStyle;exitX=0;exitY=0.5;exitDx=0;exitDy=0;entryX=1;entryY=0.75;entryDx=0;entryDy=0;" parent="1" source="QBYk8rgSqJVbzHIFE_xx-17" target="YYT5KPldXvbkuwWLWnQn-56" edge="1">
          <mxGeometry relative="1" as="geometry">
            <mxPoint x="769" y="150" as="sourcePoint" />
            <mxPoint x="700" y="160" as="targetPoint" />
            <Array as="points">
              <mxPoint x="780" y="150" />
              <mxPoint x="780" y="169" />
            </Array>
          </mxGeometry>
        </mxCell>
        <mxCell id="QBYk8rgSqJVbzHIFE_xx-22" value="" style="endArrow=none;html=1;rounded=0;strokeColor=default;align=center;verticalAlign=middle;fontFamily=Helvetica;fontSize=11;fontColor=default;labelBackgroundColor=default;edgeStyle=orthogonalEdgeStyle;entryX=1.006;entryY=0.282;entryDx=0;entryDy=0;exitX=0;exitY=0.25;exitDx=0;exitDy=0;entryPerimeter=0;" parent="1" source="YYT5KPldXvbkuwWLWnQn-137" target="YYT5KPldXvbkuwWLWnQn-97" edge="1">
          <mxGeometry relative="1" as="geometry">
            <mxPoint x="452" y="1250" as="sourcePoint" />
            <mxPoint x="401" y="1250" as="targetPoint" />
          </mxGeometry>
        </mxCell>
        <mxCell id="QBYk8rgSqJVbzHIFE_xx-23" value="1" style="resizable=0;html=1;whiteSpace=wrap;align=right;verticalAlign=bottom;fontFamily=Helvetica;fontSize=11;fontColor=default;labelBackgroundColor=default;" parent="QBYk8rgSqJVbzHIFE_xx-22" connectable="0" vertex="1">
          <mxGeometry x="1" relative="1" as="geometry">
            <mxPoint x="10" as="offset" />
          </mxGeometry>
        </mxCell>
        <mxCell id="QBYk8rgSqJVbzHIFE_xx-24" value="N" style="edgeLabel;html=1;align=center;verticalAlign=middle;resizable=0;points=[];fontFamily=Helvetica;fontSize=11;fontColor=default;labelBackgroundColor=default;" parent="QBYk8rgSqJVbzHIFE_xx-22" vertex="1" connectable="0">
          <mxGeometry x="-0.7937" y="-1" relative="1" as="geometry">
            <mxPoint as="offset" />
          </mxGeometry>
        </mxCell>
        <mxCell id="QBYk8rgSqJVbzHIFE_xx-25" value="" style="endArrow=none;html=1;rounded=0;strokeColor=default;align=center;verticalAlign=middle;fontFamily=Helvetica;fontSize=11;fontColor=default;labelBackgroundColor=default;edgeStyle=orthogonalEdgeStyle;exitX=1.019;exitY=0.164;exitDx=0;exitDy=0;exitPerimeter=0;" parent="1" source="YYT5KPldXvbkuwWLWnQn-137" edge="1">
          <mxGeometry relative="1" as="geometry">
            <mxPoint x="670" y="1240" as="sourcePoint" />
            <mxPoint x="710" y="1240" as="targetPoint" />
          </mxGeometry>
        </mxCell>
        <mxCell id="QBYk8rgSqJVbzHIFE_xx-26" value="1" style="resizable=0;html=1;whiteSpace=wrap;align=right;verticalAlign=bottom;fontFamily=Helvetica;fontSize=11;fontColor=default;labelBackgroundColor=default;" parent="QBYk8rgSqJVbzHIFE_xx-25" connectable="0" vertex="1">
          <mxGeometry x="1" relative="1" as="geometry" />
        </mxCell>
        <mxCell id="QBYk8rgSqJVbzHIFE_xx-27" value="N" style="edgeLabel;html=1;align=center;verticalAlign=middle;resizable=0;points=[];fontFamily=Helvetica;fontSize=11;fontColor=default;labelBackgroundColor=default;" parent="QBYk8rgSqJVbzHIFE_xx-25" vertex="1" connectable="0">
          <mxGeometry x="-0.7937" y="-1" relative="1" as="geometry">
            <mxPoint as="offset" />
          </mxGeometry>
        </mxCell>
        <mxCell id="QBYk8rgSqJVbzHIFE_xx-28" value="PLZ" style="ellipse;whiteSpace=wrap;html=1;align=center;" parent="1" vertex="1">
          <mxGeometry x="790" y="179" width="100" height="40" as="geometry" />
        </mxCell>
        <mxCell id="QBYk8rgSqJVbzHIFE_xx-29" value="" style="endArrow=none;html=1;rounded=0;strokeColor=default;align=center;verticalAlign=middle;fontFamily=Helvetica;fontSize=11;fontColor=default;labelBackgroundColor=default;edgeStyle=orthogonalEdgeStyle;exitX=0;exitY=0.5;exitDx=0;exitDy=0;entryX=0.75;entryY=1;entryDx=0;entryDy=0;" parent="1" source="QBYk8rgSqJVbzHIFE_xx-28" target="YYT5KPldXvbkuwWLWnQn-56" edge="1">
          <mxGeometry relative="1" as="geometry">
            <mxPoint x="879" y="110" as="sourcePoint" />
            <mxPoint x="810" y="120" as="targetPoint" />
          </mxGeometry>
        </mxCell>
        <mxCell id="Lno-Hep20rI5RP0nEHrE-2" value="&lt;div style=&quot;text-align: start;&quot;&gt;&lt;font face=&quot;Open Sans Light, Helvetica Neue, Helvetica, Arial, FreeSans, sans-serif&quot; color=&quot;#222222&quot;&gt;&lt;span style=&quot;font-size: 24px; letter-spacing: 0.368px; background-color: rgb(252, 252, 252);&quot;&gt;&lt;b&gt;Star-Schema&lt;/b&gt;&lt;/span&gt;&lt;/font&gt;&lt;/div&gt;" style="text;html=1;align=center;verticalAlign=middle;whiteSpace=wrap;rounded=0;fontFamily=Helvetica;fontSize=11;fontColor=default;labelBackgroundColor=default;" parent="1" vertex="1">
          <mxGeometry x="150" y="1540" width="360" height="70" as="geometry" />
        </mxCell>
        <mxCell id="Lno-Hep20rI5RP0nEHrE-119" value="fct_verkauf" style="shape=table;startSize=30;container=1;collapsible=1;childLayout=tableLayout;fixedRows=1;rowLines=0;fontStyle=1;align=center;resizeLast=1;" parent="1" vertex="1">
          <mxGeometry x="345" y="1920" width="320" height="240" as="geometry" />
        </mxCell>
        <mxCell id="Lno-Hep20rI5RP0nEHrE-120" value="" style="shape=tableRow;horizontal=0;startSize=0;swimlaneHead=0;swimlaneBody=0;fillColor=none;collapsible=0;dropTarget=0;points=[[0,0.5],[1,0.5]];portConstraint=eastwest;strokeColor=inherit;top=0;left=0;right=0;bottom=1;" parent="Lno-Hep20rI5RP0nEHrE-119" vertex="1">
          <mxGeometry y="30" width="320" height="30" as="geometry" />
        </mxCell>
        <mxCell id="Lno-Hep20rI5RP0nEHrE-121" value="PK" style="shape=partialRectangle;overflow=hidden;connectable=0;fillColor=none;strokeColor=inherit;top=0;left=0;bottom=0;right=0;fontStyle=1;" parent="Lno-Hep20rI5RP0nEHrE-120" vertex="1">
          <mxGeometry width="30" height="30" as="geometry">
            <mxRectangle width="30" height="30" as="alternateBounds" />
          </mxGeometry>
        </mxCell>
        <mxCell id="Lno-Hep20rI5RP0nEHrE-122" value="kasse_id INT REFERENCES dim_kasse(kasse_id)" style="shape=partialRectangle;overflow=hidden;connectable=0;fillColor=none;align=left;strokeColor=inherit;top=0;left=0;bottom=0;right=0;spacingLeft=6;fontStyle=5;" parent="Lno-Hep20rI5RP0nEHrE-120" vertex="1">
          <mxGeometry x="30" width="290" height="30" as="geometry">
            <mxRectangle width="290" height="30" as="alternateBounds" />
          </mxGeometry>
        </mxCell>
        <mxCell id="Lno-Hep20rI5RP0nEHrE-123" value="" style="shape=tableRow;horizontal=0;startSize=0;swimlaneHead=0;swimlaneBody=0;fillColor=none;collapsible=0;dropTarget=0;points=[[0,0.5],[1,0.5]];portConstraint=eastwest;strokeColor=inherit;top=0;left=0;right=0;bottom=1;" parent="Lno-Hep20rI5RP0nEHrE-119" vertex="1">
          <mxGeometry y="60" width="320" height="30" as="geometry" />
        </mxCell>
        <mxCell id="Lno-Hep20rI5RP0nEHrE-124" value="PK" style="shape=partialRectangle;overflow=hidden;connectable=0;fillColor=none;strokeColor=inherit;top=0;left=0;bottom=0;right=0;fontStyle=1;" parent="Lno-Hep20rI5RP0nEHrE-123" vertex="1">
          <mxGeometry width="30" height="30" as="geometry">
            <mxRectangle width="30" height="30" as="alternateBounds" />
          </mxGeometry>
        </mxCell>
        <mxCell id="Lno-Hep20rI5RP0nEHrE-125" value="datum_id INT REFERENCES dim_datum(datum_id)" style="shape=partialRectangle;overflow=hidden;connectable=0;fillColor=none;align=left;strokeColor=inherit;top=0;left=0;bottom=0;right=0;spacingLeft=6;fontStyle=5;" parent="Lno-Hep20rI5RP0nEHrE-123" vertex="1">
          <mxGeometry x="30" width="290" height="30" as="geometry">
            <mxRectangle width="290" height="30" as="alternateBounds" />
          </mxGeometry>
        </mxCell>
        <mxCell id="Lno-Hep20rI5RP0nEHrE-126" value="" style="shape=tableRow;horizontal=0;startSize=0;swimlaneHead=0;swimlaneBody=0;fillColor=none;collapsible=0;dropTarget=0;points=[[0,0.5],[1,0.5]];portConstraint=eastwest;strokeColor=inherit;top=0;left=0;right=0;bottom=1;" parent="Lno-Hep20rI5RP0nEHrE-119" vertex="1">
          <mxGeometry y="90" width="320" height="30" as="geometry" />
        </mxCell>
        <mxCell id="Lno-Hep20rI5RP0nEHrE-127" value="PK" style="shape=partialRectangle;overflow=hidden;connectable=0;fillColor=none;strokeColor=inherit;top=0;left=0;bottom=0;right=0;fontStyle=1;" parent="Lno-Hep20rI5RP0nEHrE-126" vertex="1">
          <mxGeometry width="30" height="30" as="geometry">
            <mxRectangle width="30" height="30" as="alternateBounds" />
          </mxGeometry>
        </mxCell>
        <mxCell id="Lno-Hep20rI5RP0nEHrE-128" value="artikel_sk INT " style="shape=partialRectangle;overflow=hidden;connectable=0;fillColor=none;align=left;strokeColor=inherit;top=0;left=0;bottom=0;right=0;spacingLeft=6;fontStyle=5;" parent="Lno-Hep20rI5RP0nEHrE-126" vertex="1">
          <mxGeometry x="30" width="290" height="30" as="geometry">
            <mxRectangle width="290" height="30" as="alternateBounds" />
          </mxGeometry>
        </mxCell>
        <mxCell id="Lno-Hep20rI5RP0nEHrE-129" value="" style="shape=tableRow;horizontal=0;startSize=0;swimlaneHead=0;swimlaneBody=0;fillColor=none;collapsible=0;dropTarget=0;points=[[0,0.5],[1,0.5]];portConstraint=eastwest;strokeColor=inherit;top=0;left=0;right=0;bottom=0;" parent="Lno-Hep20rI5RP0nEHrE-119" vertex="1">
          <mxGeometry y="120" width="320" height="30" as="geometry" />
        </mxCell>
        <mxCell id="Lno-Hep20rI5RP0nEHrE-130" value="" style="shape=partialRectangle;overflow=hidden;connectable=0;fillColor=none;strokeColor=inherit;top=0;left=0;bottom=0;right=0;" parent="Lno-Hep20rI5RP0nEHrE-129" vertex="1">
          <mxGeometry width="30" height="30" as="geometry">
            <mxRectangle width="30" height="30" as="alternateBounds" />
          </mxGeometry>
        </mxCell>
        <mxCell id="Lno-Hep20rI5RP0nEHrE-131" value="artikel_id INT REFERENCES dim_artikel(artikel_sk)" style="shape=partialRectangle;overflow=hidden;connectable=0;fillColor=none;align=left;strokeColor=inherit;top=0;left=0;bottom=0;right=0;spacingLeft=6;" parent="Lno-Hep20rI5RP0nEHrE-129" vertex="1">
          <mxGeometry x="30" width="290" height="30" as="geometry">
            <mxRectangle width="290" height="30" as="alternateBounds" />
          </mxGeometry>
        </mxCell>
        <mxCell id="Lno-Hep20rI5RP0nEHrE-132" value="" style="shape=tableRow;horizontal=0;startSize=0;swimlaneHead=0;swimlaneBody=0;fillColor=none;collapsible=0;dropTarget=0;points=[[0,0.5],[1,0.5]];portConstraint=eastwest;strokeColor=inherit;top=0;left=0;right=0;bottom=0;" parent="Lno-Hep20rI5RP0nEHrE-119" vertex="1">
          <mxGeometry y="150" width="320" height="30" as="geometry" />
        </mxCell>
        <mxCell id="Lno-Hep20rI5RP0nEHrE-133" value="" style="shape=partialRectangle;overflow=hidden;connectable=0;fillColor=none;strokeColor=inherit;top=0;left=0;bottom=0;right=0;" parent="Lno-Hep20rI5RP0nEHrE-132" vertex="1">
          <mxGeometry width="30" height="30" as="geometry">
            <mxRectangle width="30" height="30" as="alternateBounds" />
          </mxGeometry>
        </mxCell>
        <mxCell id="Lno-Hep20rI5RP0nEHrE-134" value="menge INT" style="shape=partialRectangle;overflow=hidden;connectable=0;fillColor=none;align=left;strokeColor=inherit;top=0;left=0;bottom=0;right=0;spacingLeft=6;" parent="Lno-Hep20rI5RP0nEHrE-132" vertex="1">
          <mxGeometry x="30" width="290" height="30" as="geometry">
            <mxRectangle width="290" height="30" as="alternateBounds" />
          </mxGeometry>
        </mxCell>
        <mxCell id="Lno-Hep20rI5RP0nEHrE-135" value="" style="shape=tableRow;horizontal=0;startSize=0;swimlaneHead=0;swimlaneBody=0;fillColor=none;collapsible=0;dropTarget=0;points=[[0,0.5],[1,0.5]];portConstraint=eastwest;strokeColor=inherit;top=0;left=0;right=0;bottom=0;" parent="Lno-Hep20rI5RP0nEHrE-119" vertex="1">
          <mxGeometry y="180" width="320" height="30" as="geometry" />
        </mxCell>
        <mxCell id="Lno-Hep20rI5RP0nEHrE-136" value="" style="shape=partialRectangle;overflow=hidden;connectable=0;fillColor=none;strokeColor=inherit;top=0;left=0;bottom=0;right=0;" parent="Lno-Hep20rI5RP0nEHrE-135" vertex="1">
          <mxGeometry width="30" height="30" as="geometry">
            <mxRectangle width="30" height="30" as="alternateBounds" />
          </mxGeometry>
        </mxCell>
        <mxCell id="Lno-Hep20rI5RP0nEHrE-137" value="umsatz DECIMAL(10,2)" style="shape=partialRectangle;overflow=hidden;connectable=0;fillColor=none;align=left;strokeColor=inherit;top=0;left=0;bottom=0;right=0;spacingLeft=6;" parent="Lno-Hep20rI5RP0nEHrE-135" vertex="1">
          <mxGeometry x="30" width="290" height="30" as="geometry">
            <mxRectangle width="290" height="30" as="alternateBounds" />
          </mxGeometry>
        </mxCell>
        <mxCell id="Lno-Hep20rI5RP0nEHrE-239" value="" style="shape=tableRow;horizontal=0;startSize=0;swimlaneHead=0;swimlaneBody=0;fillColor=none;collapsible=0;dropTarget=0;points=[[0,0.5],[1,0.5]];portConstraint=eastwest;strokeColor=inherit;top=0;left=0;right=0;bottom=0;" parent="Lno-Hep20rI5RP0nEHrE-119" vertex="1">
          <mxGeometry y="210" width="320" height="30" as="geometry" />
        </mxCell>
        <mxCell id="Lno-Hep20rI5RP0nEHrE-240" value="" style="shape=partialRectangle;overflow=hidden;connectable=0;fillColor=none;strokeColor=inherit;top=0;left=0;bottom=0;right=0;" parent="Lno-Hep20rI5RP0nEHrE-239" vertex="1">
          <mxGeometry width="30" height="30" as="geometry">
            <mxRectangle width="30" height="30" as="alternateBounds" />
          </mxGeometry>
        </mxCell>
        <mxCell id="Lno-Hep20rI5RP0nEHrE-241" value="" style="shape=partialRectangle;overflow=hidden;connectable=0;fillColor=none;align=left;strokeColor=inherit;top=0;left=0;bottom=0;right=0;spacingLeft=6;" parent="Lno-Hep20rI5RP0nEHrE-239" vertex="1">
          <mxGeometry x="30" width="290" height="30" as="geometry">
            <mxRectangle width="290" height="30" as="alternateBounds" />
          </mxGeometry>
        </mxCell>
        <mxCell id="Lno-Hep20rI5RP0nEHrE-138" value="dim_datum" style="shape=table;startSize=30;container=1;collapsible=1;childLayout=tableLayout;fixedRows=1;rowLines=0;fontStyle=1;align=center;resizeLast=1;" parent="1" vertex="1">
          <mxGeometry x="20" y="1640" width="230" height="240" as="geometry" />
        </mxCell>
        <mxCell id="Lno-Hep20rI5RP0nEHrE-139" value="" style="shape=tableRow;horizontal=0;startSize=0;swimlaneHead=0;swimlaneBody=0;fillColor=none;collapsible=0;dropTarget=0;points=[[0,0.5],[1,0.5]];portConstraint=eastwest;strokeColor=inherit;top=0;left=0;right=0;bottom=1;" parent="Lno-Hep20rI5RP0nEHrE-138" vertex="1">
          <mxGeometry y="30" width="230" height="30" as="geometry" />
        </mxCell>
        <mxCell id="Lno-Hep20rI5RP0nEHrE-140" value="PK" style="shape=partialRectangle;overflow=hidden;connectable=0;fillColor=none;strokeColor=inherit;top=0;left=0;bottom=0;right=0;fontStyle=1;" parent="Lno-Hep20rI5RP0nEHrE-139" vertex="1">
          <mxGeometry width="30" height="30" as="geometry">
            <mxRectangle width="30" height="30" as="alternateBounds" />
          </mxGeometry>
        </mxCell>
        <mxCell id="Lno-Hep20rI5RP0nEHrE-141" value="datum_id INT " style="shape=partialRectangle;overflow=hidden;connectable=0;fillColor=none;align=left;strokeColor=inherit;top=0;left=0;bottom=0;right=0;spacingLeft=6;fontStyle=5;" parent="Lno-Hep20rI5RP0nEHrE-139" vertex="1">
          <mxGeometry x="30" width="200" height="30" as="geometry">
            <mxRectangle width="200" height="30" as="alternateBounds" />
          </mxGeometry>
        </mxCell>
        <mxCell id="Lno-Hep20rI5RP0nEHrE-142" value="" style="shape=tableRow;horizontal=0;startSize=0;swimlaneHead=0;swimlaneBody=0;fillColor=none;collapsible=0;dropTarget=0;points=[[0,0.5],[1,0.5]];portConstraint=eastwest;strokeColor=inherit;top=0;left=0;right=0;bottom=0;" parent="Lno-Hep20rI5RP0nEHrE-138" vertex="1">
          <mxGeometry y="60" width="230" height="30" as="geometry" />
        </mxCell>
        <mxCell id="Lno-Hep20rI5RP0nEHrE-143" value="" style="shape=partialRectangle;overflow=hidden;connectable=0;fillColor=none;strokeColor=inherit;top=0;left=0;bottom=0;right=0;" parent="Lno-Hep20rI5RP0nEHrE-142" vertex="1">
          <mxGeometry width="30" height="30" as="geometry">
            <mxRectangle width="30" height="30" as="alternateBounds" />
          </mxGeometry>
        </mxCell>
        <mxCell id="Lno-Hep20rI5RP0nEHrE-144" value="datum DATE" style="shape=partialRectangle;overflow=hidden;connectable=0;fillColor=none;align=left;strokeColor=inherit;top=0;left=0;bottom=0;right=0;spacingLeft=6;" parent="Lno-Hep20rI5RP0nEHrE-142" vertex="1">
          <mxGeometry x="30" width="200" height="30" as="geometry">
            <mxRectangle width="200" height="30" as="alternateBounds" />
          </mxGeometry>
        </mxCell>
        <mxCell id="Lno-Hep20rI5RP0nEHrE-145" value="" style="shape=tableRow;horizontal=0;startSize=0;swimlaneHead=0;swimlaneBody=0;fillColor=none;collapsible=0;dropTarget=0;points=[[0,0.5],[1,0.5]];portConstraint=eastwest;strokeColor=inherit;top=0;left=0;right=0;bottom=0;" parent="Lno-Hep20rI5RP0nEHrE-138" vertex="1">
          <mxGeometry y="90" width="230" height="30" as="geometry" />
        </mxCell>
        <mxCell id="Lno-Hep20rI5RP0nEHrE-146" value="" style="shape=partialRectangle;overflow=hidden;connectable=0;fillColor=none;strokeColor=inherit;top=0;left=0;bottom=0;right=0;" parent="Lno-Hep20rI5RP0nEHrE-145" vertex="1">
          <mxGeometry width="30" height="30" as="geometry">
            <mxRectangle width="30" height="30" as="alternateBounds" />
          </mxGeometry>
        </mxCell>
        <mxCell id="Lno-Hep20rI5RP0nEHrE-147" value="tag INT" style="shape=partialRectangle;overflow=hidden;connectable=0;fillColor=none;align=left;strokeColor=inherit;top=0;left=0;bottom=0;right=0;spacingLeft=6;" parent="Lno-Hep20rI5RP0nEHrE-145" vertex="1">
          <mxGeometry x="30" width="200" height="30" as="geometry">
            <mxRectangle width="200" height="30" as="alternateBounds" />
          </mxGeometry>
        </mxCell>
        <mxCell id="Lno-Hep20rI5RP0nEHrE-148" value="" style="shape=tableRow;horizontal=0;startSize=0;swimlaneHead=0;swimlaneBody=0;fillColor=none;collapsible=0;dropTarget=0;points=[[0,0.5],[1,0.5]];portConstraint=eastwest;strokeColor=inherit;top=0;left=0;right=0;bottom=0;" parent="Lno-Hep20rI5RP0nEHrE-138" vertex="1">
          <mxGeometry y="120" width="230" height="30" as="geometry" />
        </mxCell>
        <mxCell id="Lno-Hep20rI5RP0nEHrE-149" value="" style="shape=partialRectangle;overflow=hidden;connectable=0;fillColor=none;strokeColor=inherit;top=0;left=0;bottom=0;right=0;" parent="Lno-Hep20rI5RP0nEHrE-148" vertex="1">
          <mxGeometry width="30" height="30" as="geometry">
            <mxRectangle width="30" height="30" as="alternateBounds" />
          </mxGeometry>
        </mxCell>
        <mxCell id="Lno-Hep20rI5RP0nEHrE-150" value="monat INT" style="shape=partialRectangle;overflow=hidden;connectable=0;fillColor=none;align=left;strokeColor=inherit;top=0;left=0;bottom=0;right=0;spacingLeft=6;" parent="Lno-Hep20rI5RP0nEHrE-148" vertex="1">
          <mxGeometry x="30" width="200" height="30" as="geometry">
            <mxRectangle width="200" height="30" as="alternateBounds" />
          </mxGeometry>
        </mxCell>
        <mxCell id="Lno-Hep20rI5RP0nEHrE-151" value="" style="shape=tableRow;horizontal=0;startSize=0;swimlaneHead=0;swimlaneBody=0;fillColor=none;collapsible=0;dropTarget=0;points=[[0,0.5],[1,0.5]];portConstraint=eastwest;strokeColor=inherit;top=0;left=0;right=0;bottom=0;" parent="Lno-Hep20rI5RP0nEHrE-138" vertex="1">
          <mxGeometry y="150" width="230" height="30" as="geometry" />
        </mxCell>
        <mxCell id="Lno-Hep20rI5RP0nEHrE-152" value="" style="shape=partialRectangle;overflow=hidden;connectable=0;fillColor=none;strokeColor=inherit;top=0;left=0;bottom=0;right=0;" parent="Lno-Hep20rI5RP0nEHrE-151" vertex="1">
          <mxGeometry width="30" height="30" as="geometry">
            <mxRectangle width="30" height="30" as="alternateBounds" />
          </mxGeometry>
        </mxCell>
        <mxCell id="Lno-Hep20rI5RP0nEHrE-153" value="jahr INT" style="shape=partialRectangle;overflow=hidden;connectable=0;fillColor=none;align=left;strokeColor=inherit;top=0;left=0;bottom=0;right=0;spacingLeft=6;" parent="Lno-Hep20rI5RP0nEHrE-151" vertex="1">
          <mxGeometry x="30" width="200" height="30" as="geometry">
            <mxRectangle width="200" height="30" as="alternateBounds" />
          </mxGeometry>
        </mxCell>
        <mxCell id="Lno-Hep20rI5RP0nEHrE-154" value="" style="shape=tableRow;horizontal=0;startSize=0;swimlaneHead=0;swimlaneBody=0;fillColor=none;collapsible=0;dropTarget=0;points=[[0,0.5],[1,0.5]];portConstraint=eastwest;strokeColor=inherit;top=0;left=0;right=0;bottom=0;" parent="Lno-Hep20rI5RP0nEHrE-138" vertex="1">
          <mxGeometry y="180" width="230" height="30" as="geometry" />
        </mxCell>
        <mxCell id="Lno-Hep20rI5RP0nEHrE-155" value="" style="shape=partialRectangle;overflow=hidden;connectable=0;fillColor=none;strokeColor=inherit;top=0;left=0;bottom=0;right=0;" parent="Lno-Hep20rI5RP0nEHrE-154" vertex="1">
          <mxGeometry width="30" height="30" as="geometry">
            <mxRectangle width="30" height="30" as="alternateBounds" />
          </mxGeometry>
        </mxCell>
        <mxCell id="Lno-Hep20rI5RP0nEHrE-156" value="wochentag_name VARCHAR(20)" style="shape=partialRectangle;overflow=hidden;connectable=0;fillColor=none;align=left;strokeColor=inherit;top=0;left=0;bottom=0;right=0;spacingLeft=6;" parent="Lno-Hep20rI5RP0nEHrE-154" vertex="1">
          <mxGeometry x="30" width="200" height="30" as="geometry">
            <mxRectangle width="200" height="30" as="alternateBounds" />
          </mxGeometry>
        </mxCell>
        <mxCell id="Lno-Hep20rI5RP0nEHrE-157" value="" style="shape=tableRow;horizontal=0;startSize=0;swimlaneHead=0;swimlaneBody=0;fillColor=none;collapsible=0;dropTarget=0;points=[[0,0.5],[1,0.5]];portConstraint=eastwest;strokeColor=inherit;top=0;left=0;right=0;bottom=0;" parent="Lno-Hep20rI5RP0nEHrE-138" vertex="1">
          <mxGeometry y="210" width="230" height="30" as="geometry" />
        </mxCell>
        <mxCell id="Lno-Hep20rI5RP0nEHrE-158" value="" style="shape=partialRectangle;overflow=hidden;connectable=0;fillColor=none;strokeColor=inherit;top=0;left=0;bottom=0;right=0;" parent="Lno-Hep20rI5RP0nEHrE-157" vertex="1">
          <mxGeometry width="30" height="30" as="geometry">
            <mxRectangle width="30" height="30" as="alternateBounds" />
          </mxGeometry>
        </mxCell>
        <mxCell id="Lno-Hep20rI5RP0nEHrE-159" value="ist_wochenende BOOLEAN" style="shape=partialRectangle;overflow=hidden;connectable=0;fillColor=none;align=left;strokeColor=inherit;top=0;left=0;bottom=0;right=0;spacingLeft=6;" parent="Lno-Hep20rI5RP0nEHrE-157" vertex="1">
          <mxGeometry x="30" width="200" height="30" as="geometry">
            <mxRectangle width="200" height="30" as="alternateBounds" />
          </mxGeometry>
        </mxCell>
        <mxCell id="Lno-Hep20rI5RP0nEHrE-160" value="dim_kasse" style="shape=table;startSize=30;container=1;collapsible=1;childLayout=tableLayout;fixedRows=1;rowLines=0;fontStyle=1;align=center;resizeLast=1;" parent="1" vertex="1">
          <mxGeometry x="417" y="1630" width="200" height="240" as="geometry" />
        </mxCell>
        <mxCell id="Lno-Hep20rI5RP0nEHrE-161" value="" style="shape=tableRow;horizontal=0;startSize=0;swimlaneHead=0;swimlaneBody=0;fillColor=none;collapsible=0;dropTarget=0;points=[[0,0.5],[1,0.5]];portConstraint=eastwest;strokeColor=inherit;top=0;left=0;right=0;bottom=1;" parent="Lno-Hep20rI5RP0nEHrE-160" vertex="1">
          <mxGeometry y="30" width="200" height="30" as="geometry" />
        </mxCell>
        <mxCell id="Lno-Hep20rI5RP0nEHrE-162" value="PK" style="shape=partialRectangle;overflow=hidden;connectable=0;fillColor=none;strokeColor=inherit;top=0;left=0;bottom=0;right=0;fontStyle=1;" parent="Lno-Hep20rI5RP0nEHrE-161" vertex="1">
          <mxGeometry width="30" height="30" as="geometry">
            <mxRectangle width="30" height="30" as="alternateBounds" />
          </mxGeometry>
        </mxCell>
        <mxCell id="Lno-Hep20rI5RP0nEHrE-163" value="kasse_id INT " style="shape=partialRectangle;overflow=hidden;connectable=0;fillColor=none;align=left;strokeColor=inherit;top=0;left=0;bottom=0;right=0;spacingLeft=6;fontStyle=5;" parent="Lno-Hep20rI5RP0nEHrE-161" vertex="1">
          <mxGeometry x="30" width="170" height="30" as="geometry">
            <mxRectangle width="170" height="30" as="alternateBounds" />
          </mxGeometry>
        </mxCell>
        <mxCell id="Lno-Hep20rI5RP0nEHrE-164" value="" style="shape=tableRow;horizontal=0;startSize=0;swimlaneHead=0;swimlaneBody=0;fillColor=none;collapsible=0;dropTarget=0;points=[[0,0.5],[1,0.5]];portConstraint=eastwest;strokeColor=inherit;top=0;left=0;right=0;bottom=0;" parent="Lno-Hep20rI5RP0nEHrE-160" vertex="1">
          <mxGeometry y="60" width="200" height="30" as="geometry" />
        </mxCell>
        <mxCell id="Lno-Hep20rI5RP0nEHrE-165" value="" style="shape=partialRectangle;overflow=hidden;connectable=0;fillColor=none;strokeColor=inherit;top=0;left=0;bottom=0;right=0;" parent="Lno-Hep20rI5RP0nEHrE-164" vertex="1">
          <mxGeometry width="30" height="30" as="geometry">
            <mxRectangle width="30" height="30" as="alternateBounds" />
          </mxGeometry>
        </mxCell>
        <mxCell id="Lno-Hep20rI5RP0nEHrE-166" value="id_kasse INT" style="shape=partialRectangle;overflow=hidden;connectable=0;fillColor=none;align=left;strokeColor=inherit;top=0;left=0;bottom=0;right=0;spacingLeft=6;" parent="Lno-Hep20rI5RP0nEHrE-164" vertex="1">
          <mxGeometry x="30" width="170" height="30" as="geometry">
            <mxRectangle width="170" height="30" as="alternateBounds" />
          </mxGeometry>
        </mxCell>
        <mxCell id="Lno-Hep20rI5RP0nEHrE-167" value="" style="shape=tableRow;horizontal=0;startSize=0;swimlaneHead=0;swimlaneBody=0;fillColor=none;collapsible=0;dropTarget=0;points=[[0,0.5],[1,0.5]];portConstraint=eastwest;strokeColor=inherit;top=0;left=0;right=0;bottom=0;" parent="Lno-Hep20rI5RP0nEHrE-160" vertex="1">
          <mxGeometry y="90" width="200" height="30" as="geometry" />
        </mxCell>
        <mxCell id="Lno-Hep20rI5RP0nEHrE-168" value="" style="shape=partialRectangle;overflow=hidden;connectable=0;fillColor=none;strokeColor=inherit;top=0;left=0;bottom=0;right=0;" parent="Lno-Hep20rI5RP0nEHrE-167" vertex="1">
          <mxGeometry width="30" height="30" as="geometry">
            <mxRectangle width="30" height="30" as="alternateBounds" />
          </mxGeometry>
        </mxCell>
        <mxCell id="Lno-Hep20rI5RP0nEHrE-169" value="kassen_nr INT" style="shape=partialRectangle;overflow=hidden;connectable=0;fillColor=none;align=left;strokeColor=inherit;top=0;left=0;bottom=0;right=0;spacingLeft=6;" parent="Lno-Hep20rI5RP0nEHrE-167" vertex="1">
          <mxGeometry x="30" width="170" height="30" as="geometry">
            <mxRectangle width="170" height="30" as="alternateBounds" />
          </mxGeometry>
        </mxCell>
        <mxCell id="Lno-Hep20rI5RP0nEHrE-170" value="" style="shape=tableRow;horizontal=0;startSize=0;swimlaneHead=0;swimlaneBody=0;fillColor=none;collapsible=0;dropTarget=0;points=[[0,0.5],[1,0.5]];portConstraint=eastwest;strokeColor=inherit;top=0;left=0;right=0;bottom=0;" parent="Lno-Hep20rI5RP0nEHrE-160" vertex="1">
          <mxGeometry y="120" width="200" height="30" as="geometry" />
        </mxCell>
        <mxCell id="Lno-Hep20rI5RP0nEHrE-171" value="" style="shape=partialRectangle;overflow=hidden;connectable=0;fillColor=none;strokeColor=inherit;top=0;left=0;bottom=0;right=0;" parent="Lno-Hep20rI5RP0nEHrE-170" vertex="1">
          <mxGeometry width="30" height="30" as="geometry">
            <mxRectangle width="30" height="30" as="alternateBounds" />
          </mxGeometry>
        </mxCell>
        <mxCell id="Lno-Hep20rI5RP0nEHrE-172" value="id_filiale INT" style="shape=partialRectangle;overflow=hidden;connectable=0;fillColor=none;align=left;strokeColor=inherit;top=0;left=0;bottom=0;right=0;spacingLeft=6;" parent="Lno-Hep20rI5RP0nEHrE-170" vertex="1">
          <mxGeometry x="30" width="170" height="30" as="geometry">
            <mxRectangle width="170" height="30" as="alternateBounds" />
          </mxGeometry>
        </mxCell>
        <mxCell id="Lno-Hep20rI5RP0nEHrE-173" value="" style="shape=tableRow;horizontal=0;startSize=0;swimlaneHead=0;swimlaneBody=0;fillColor=none;collapsible=0;dropTarget=0;points=[[0,0.5],[1,0.5]];portConstraint=eastwest;strokeColor=inherit;top=0;left=0;right=0;bottom=0;" parent="Lno-Hep20rI5RP0nEHrE-160" vertex="1">
          <mxGeometry y="150" width="200" height="30" as="geometry" />
        </mxCell>
        <mxCell id="Lno-Hep20rI5RP0nEHrE-174" value="" style="shape=partialRectangle;overflow=hidden;connectable=0;fillColor=none;strokeColor=inherit;top=0;left=0;bottom=0;right=0;" parent="Lno-Hep20rI5RP0nEHrE-173" vertex="1">
          <mxGeometry width="30" height="30" as="geometry">
            <mxRectangle width="30" height="30" as="alternateBounds" />
          </mxGeometry>
        </mxCell>
        <mxCell id="Lno-Hep20rI5RP0nEHrE-175" value="filiale VARCHAR(50)" style="shape=partialRectangle;overflow=hidden;connectable=0;fillColor=none;align=left;strokeColor=inherit;top=0;left=0;bottom=0;right=0;spacingLeft=6;" parent="Lno-Hep20rI5RP0nEHrE-173" vertex="1">
          <mxGeometry x="30" width="170" height="30" as="geometry">
            <mxRectangle width="170" height="30" as="alternateBounds" />
          </mxGeometry>
        </mxCell>
        <mxCell id="Lno-Hep20rI5RP0nEHrE-176" value="" style="shape=tableRow;horizontal=0;startSize=0;swimlaneHead=0;swimlaneBody=0;fillColor=none;collapsible=0;dropTarget=0;points=[[0,0.5],[1,0.5]];portConstraint=eastwest;strokeColor=inherit;top=0;left=0;right=0;bottom=0;" parent="Lno-Hep20rI5RP0nEHrE-160" vertex="1">
          <mxGeometry y="180" width="200" height="30" as="geometry" />
        </mxCell>
        <mxCell id="Lno-Hep20rI5RP0nEHrE-177" value="" style="shape=partialRectangle;overflow=hidden;connectable=0;fillColor=none;strokeColor=inherit;top=0;left=0;bottom=0;right=0;" parent="Lno-Hep20rI5RP0nEHrE-176" vertex="1">
          <mxGeometry width="30" height="30" as="geometry">
            <mxRectangle width="30" height="30" as="alternateBounds" />
          </mxGeometry>
        </mxCell>
        <mxCell id="Lno-Hep20rI5RP0nEHrE-178" value="id_bundesland INT" style="shape=partialRectangle;overflow=hidden;connectable=0;fillColor=none;align=left;strokeColor=inherit;top=0;left=0;bottom=0;right=0;spacingLeft=6;" parent="Lno-Hep20rI5RP0nEHrE-176" vertex="1">
          <mxGeometry x="30" width="170" height="30" as="geometry">
            <mxRectangle width="170" height="30" as="alternateBounds" />
          </mxGeometry>
        </mxCell>
        <mxCell id="Lno-Hep20rI5RP0nEHrE-179" value="" style="shape=tableRow;horizontal=0;startSize=0;swimlaneHead=0;swimlaneBody=0;fillColor=none;collapsible=0;dropTarget=0;points=[[0,0.5],[1,0.5]];portConstraint=eastwest;strokeColor=inherit;top=0;left=0;right=0;bottom=0;" parent="Lno-Hep20rI5RP0nEHrE-160" vertex="1">
          <mxGeometry y="210" width="200" height="30" as="geometry" />
        </mxCell>
        <mxCell id="Lno-Hep20rI5RP0nEHrE-180" value="" style="shape=partialRectangle;overflow=hidden;connectable=0;fillColor=none;strokeColor=inherit;top=0;left=0;bottom=0;right=0;" parent="Lno-Hep20rI5RP0nEHrE-179" vertex="1">
          <mxGeometry width="30" height="30" as="geometry">
            <mxRectangle width="30" height="30" as="alternateBounds" />
          </mxGeometry>
        </mxCell>
        <mxCell id="Lno-Hep20rI5RP0nEHrE-181" value="bundesland VARCHAR(50)" style="shape=partialRectangle;overflow=hidden;connectable=0;fillColor=none;align=left;strokeColor=inherit;top=0;left=0;bottom=0;right=0;spacingLeft=6;" parent="Lno-Hep20rI5RP0nEHrE-179" vertex="1">
          <mxGeometry x="30" width="170" height="30" as="geometry">
            <mxRectangle width="170" height="30" as="alternateBounds" />
          </mxGeometry>
        </mxCell>
        <mxCell id="Lno-Hep20rI5RP0nEHrE-182" value="dim_artikel" style="shape=table;startSize=30;container=1;collapsible=1;childLayout=tableLayout;fixedRows=1;rowLines=0;fontStyle=1;align=center;resizeLast=1;" parent="1" vertex="1">
          <mxGeometry x="810" y="1540" width="320" height="360" as="geometry" />
        </mxCell>
        <mxCell id="Lno-Hep20rI5RP0nEHrE-183" value="" style="shape=tableRow;horizontal=0;startSize=0;swimlaneHead=0;swimlaneBody=0;fillColor=none;collapsible=0;dropTarget=0;points=[[0,0.5],[1,0.5]];portConstraint=eastwest;strokeColor=inherit;top=0;left=0;right=0;bottom=1;" parent="Lno-Hep20rI5RP0nEHrE-182" vertex="1">
          <mxGeometry y="30" width="320" height="30" as="geometry" />
        </mxCell>
        <mxCell id="Lno-Hep20rI5RP0nEHrE-184" value="" style="shape=partialRectangle;overflow=hidden;connectable=0;fillColor=none;strokeColor=inherit;top=0;left=0;bottom=0;right=0;fontStyle=1;" parent="Lno-Hep20rI5RP0nEHrE-183" vertex="1">
          <mxGeometry width="30" height="30" as="geometry">
            <mxRectangle width="30" height="30" as="alternateBounds" />
          </mxGeometry>
        </mxCell>
        <mxCell id="Lno-Hep20rI5RP0nEHrE-185" value="" style="shape=partialRectangle;overflow=hidden;connectable=0;fillColor=none;align=left;strokeColor=inherit;top=0;left=0;bottom=0;right=0;spacingLeft=6;fontStyle=5;" parent="Lno-Hep20rI5RP0nEHrE-183" vertex="1">
          <mxGeometry x="30" width="290" height="30" as="geometry">
            <mxRectangle width="290" height="30" as="alternateBounds" />
          </mxGeometry>
        </mxCell>
        <mxCell id="Lno-Hep20rI5RP0nEHrE-186" value="" style="shape=tableRow;horizontal=0;startSize=0;swimlaneHead=0;swimlaneBody=0;fillColor=none;collapsible=0;dropTarget=0;points=[[0,0.5],[1,0.5]];portConstraint=eastwest;strokeColor=inherit;top=0;left=0;right=0;bottom=1;" parent="Lno-Hep20rI5RP0nEHrE-182" vertex="1">
          <mxGeometry y="60" width="320" height="30" as="geometry" />
        </mxCell>
        <mxCell id="Lno-Hep20rI5RP0nEHrE-187" value="PK" style="shape=partialRectangle;overflow=hidden;connectable=0;fillColor=none;strokeColor=inherit;top=0;left=0;bottom=0;right=0;fontStyle=1;" parent="Lno-Hep20rI5RP0nEHrE-186" vertex="1">
          <mxGeometry width="30" height="30" as="geometry">
            <mxRectangle width="30" height="30" as="alternateBounds" />
          </mxGeometry>
        </mxCell>
        <mxCell id="Lno-Hep20rI5RP0nEHrE-188" value="artikel_sk INT" style="shape=partialRectangle;overflow=hidden;connectable=0;fillColor=none;align=left;strokeColor=inherit;top=0;left=0;bottom=0;right=0;spacingLeft=6;fontStyle=5;" parent="Lno-Hep20rI5RP0nEHrE-186" vertex="1">
          <mxGeometry x="30" width="290" height="30" as="geometry">
            <mxRectangle width="290" height="30" as="alternateBounds" />
          </mxGeometry>
        </mxCell>
        <mxCell id="Lno-Hep20rI5RP0nEHrE-189" value="" style="shape=tableRow;horizontal=0;startSize=0;swimlaneHead=0;swimlaneBody=0;fillColor=none;collapsible=0;dropTarget=0;points=[[0,0.5],[1,0.5]];portConstraint=eastwest;strokeColor=inherit;top=0;left=0;right=0;bottom=0;" parent="Lno-Hep20rI5RP0nEHrE-182" vertex="1">
          <mxGeometry y="90" width="320" height="30" as="geometry" />
        </mxCell>
        <mxCell id="Lno-Hep20rI5RP0nEHrE-190" value="" style="shape=partialRectangle;overflow=hidden;connectable=0;fillColor=none;strokeColor=inherit;top=0;left=0;bottom=0;right=0;" parent="Lno-Hep20rI5RP0nEHrE-189" vertex="1">
          <mxGeometry width="30" height="30" as="geometry">
            <mxRectangle width="30" height="30" as="alternateBounds" />
          </mxGeometry>
        </mxCell>
        <mxCell id="Lno-Hep20rI5RP0nEHrE-191" value="id_artikel INT" style="shape=partialRectangle;overflow=hidden;connectable=0;fillColor=none;align=left;strokeColor=inherit;top=0;left=0;bottom=0;right=0;spacingLeft=6;" parent="Lno-Hep20rI5RP0nEHrE-189" vertex="1">
          <mxGeometry x="30" width="290" height="30" as="geometry">
            <mxRectangle width="290" height="30" as="alternateBounds" />
          </mxGeometry>
        </mxCell>
        <mxCell id="Lno-Hep20rI5RP0nEHrE-192" value="" style="shape=tableRow;horizontal=0;startSize=0;swimlaneHead=0;swimlaneBody=0;fillColor=none;collapsible=0;dropTarget=0;points=[[0,0.5],[1,0.5]];portConstraint=eastwest;strokeColor=inherit;top=0;left=0;right=0;bottom=0;" parent="Lno-Hep20rI5RP0nEHrE-182" vertex="1">
          <mxGeometry y="120" width="320" height="30" as="geometry" />
        </mxCell>
        <mxCell id="Lno-Hep20rI5RP0nEHrE-193" value="" style="shape=partialRectangle;overflow=hidden;connectable=0;fillColor=none;strokeColor=inherit;top=0;left=0;bottom=0;right=0;" parent="Lno-Hep20rI5RP0nEHrE-192" vertex="1">
          <mxGeometry width="30" height="30" as="geometry">
            <mxRectangle width="30" height="30" as="alternateBounds" />
          </mxGeometry>
        </mxCell>
        <mxCell id="Lno-Hep20rI5RP0nEHrE-194" value="bezeichnung VARCHAR(50)" style="shape=partialRectangle;overflow=hidden;connectable=0;fillColor=none;align=left;strokeColor=inherit;top=0;left=0;bottom=0;right=0;spacingLeft=6;" parent="Lno-Hep20rI5RP0nEHrE-192" vertex="1">
          <mxGeometry x="30" width="290" height="30" as="geometry">
            <mxRectangle width="290" height="30" as="alternateBounds" />
          </mxGeometry>
        </mxCell>
        <mxCell id="Lno-Hep20rI5RP0nEHrE-195" value="" style="shape=tableRow;horizontal=0;startSize=0;swimlaneHead=0;swimlaneBody=0;fillColor=none;collapsible=0;dropTarget=0;points=[[0,0.5],[1,0.5]];portConstraint=eastwest;strokeColor=inherit;top=0;left=0;right=0;bottom=0;" parent="Lno-Hep20rI5RP0nEHrE-182" vertex="1">
          <mxGeometry y="150" width="320" height="30" as="geometry" />
        </mxCell>
        <mxCell id="Lno-Hep20rI5RP0nEHrE-196" value="" style="shape=partialRectangle;overflow=hidden;connectable=0;fillColor=none;strokeColor=inherit;top=0;left=0;bottom=0;right=0;" parent="Lno-Hep20rI5RP0nEHrE-195" vertex="1">
          <mxGeometry width="30" height="30" as="geometry">
            <mxRectangle width="30" height="30" as="alternateBounds" />
          </mxGeometry>
        </mxCell>
        <mxCell id="Lno-Hep20rI5RP0nEHrE-197" value="preis DECIMAL(10,2)" style="shape=partialRectangle;overflow=hidden;connectable=0;fillColor=none;align=left;strokeColor=inherit;top=0;left=0;bottom=0;right=0;spacingLeft=6;" parent="Lno-Hep20rI5RP0nEHrE-195" vertex="1">
          <mxGeometry x="30" width="290" height="30" as="geometry">
            <mxRectangle width="290" height="30" as="alternateBounds" />
          </mxGeometry>
        </mxCell>
        <mxCell id="Lno-Hep20rI5RP0nEHrE-198" value="" style="shape=tableRow;horizontal=0;startSize=0;swimlaneHead=0;swimlaneBody=0;fillColor=none;collapsible=0;dropTarget=0;points=[[0,0.5],[1,0.5]];portConstraint=eastwest;strokeColor=inherit;top=0;left=0;right=0;bottom=0;" parent="Lno-Hep20rI5RP0nEHrE-182" vertex="1">
          <mxGeometry y="180" width="320" height="30" as="geometry" />
        </mxCell>
        <mxCell id="Lno-Hep20rI5RP0nEHrE-199" value="" style="shape=partialRectangle;overflow=hidden;connectable=0;fillColor=none;strokeColor=inherit;top=0;left=0;bottom=0;right=0;" parent="Lno-Hep20rI5RP0nEHrE-198" vertex="1">
          <mxGeometry width="30" height="30" as="geometry">
            <mxRectangle width="30" height="30" as="alternateBounds" />
          </mxGeometry>
        </mxCell>
        <mxCell id="Lno-Hep20rI5RP0nEHrE-200" value="id_kategorie INT" style="shape=partialRectangle;overflow=hidden;connectable=0;fillColor=none;align=left;strokeColor=inherit;top=0;left=0;bottom=0;right=0;spacingLeft=6;" parent="Lno-Hep20rI5RP0nEHrE-198" vertex="1">
          <mxGeometry x="30" width="290" height="30" as="geometry">
            <mxRectangle width="290" height="30" as="alternateBounds" />
          </mxGeometry>
        </mxCell>
        <mxCell id="Lno-Hep20rI5RP0nEHrE-201" value="" style="shape=tableRow;horizontal=0;startSize=0;swimlaneHead=0;swimlaneBody=0;fillColor=none;collapsible=0;dropTarget=0;points=[[0,0.5],[1,0.5]];portConstraint=eastwest;strokeColor=inherit;top=0;left=0;right=0;bottom=0;" parent="Lno-Hep20rI5RP0nEHrE-182" vertex="1">
          <mxGeometry y="210" width="320" height="30" as="geometry" />
        </mxCell>
        <mxCell id="Lno-Hep20rI5RP0nEHrE-202" value="" style="shape=partialRectangle;overflow=hidden;connectable=0;fillColor=none;strokeColor=inherit;top=0;left=0;bottom=0;right=0;" parent="Lno-Hep20rI5RP0nEHrE-201" vertex="1">
          <mxGeometry width="30" height="30" as="geometry">
            <mxRectangle width="30" height="30" as="alternateBounds" />
          </mxGeometry>
        </mxCell>
        <mxCell id="Lno-Hep20rI5RP0nEHrE-203" value="kategorie VARCHAR(50)" style="shape=partialRectangle;overflow=hidden;connectable=0;fillColor=none;align=left;strokeColor=inherit;top=0;left=0;bottom=0;right=0;spacingLeft=6;" parent="Lno-Hep20rI5RP0nEHrE-201" vertex="1">
          <mxGeometry x="30" width="290" height="30" as="geometry">
            <mxRectangle width="290" height="30" as="alternateBounds" />
          </mxGeometry>
        </mxCell>
        <mxCell id="Lno-Hep20rI5RP0nEHrE-204" value="" style="shape=tableRow;horizontal=0;startSize=0;swimlaneHead=0;swimlaneBody=0;fillColor=none;collapsible=0;dropTarget=0;points=[[0,0.5],[1,0.5]];portConstraint=eastwest;strokeColor=inherit;top=0;left=0;right=0;bottom=0;" parent="Lno-Hep20rI5RP0nEHrE-182" vertex="1">
          <mxGeometry y="240" width="320" height="30" as="geometry" />
        </mxCell>
        <mxCell id="Lno-Hep20rI5RP0nEHrE-205" value="" style="shape=partialRectangle;overflow=hidden;connectable=0;fillColor=none;strokeColor=inherit;top=0;left=0;bottom=0;right=0;" parent="Lno-Hep20rI5RP0nEHrE-204" vertex="1">
          <mxGeometry width="30" height="30" as="geometry">
            <mxRectangle width="30" height="30" as="alternateBounds" />
          </mxGeometry>
        </mxCell>
        <mxCell id="Lno-Hep20rI5RP0nEHrE-206" value="gueltig_von DATE" style="shape=partialRectangle;overflow=hidden;connectable=0;fillColor=none;align=left;strokeColor=inherit;top=0;left=0;bottom=0;right=0;spacingLeft=6;" parent="Lno-Hep20rI5RP0nEHrE-204" vertex="1">
          <mxGeometry x="30" width="290" height="30" as="geometry">
            <mxRectangle width="290" height="30" as="alternateBounds" />
          </mxGeometry>
        </mxCell>
        <mxCell id="Lno-Hep20rI5RP0nEHrE-207" value="" style="shape=tableRow;horizontal=0;startSize=0;swimlaneHead=0;swimlaneBody=0;fillColor=none;collapsible=0;dropTarget=0;points=[[0,0.5],[1,0.5]];portConstraint=eastwest;strokeColor=inherit;top=0;left=0;right=0;bottom=0;" parent="Lno-Hep20rI5RP0nEHrE-182" vertex="1">
          <mxGeometry y="270" width="320" height="30" as="geometry" />
        </mxCell>
        <mxCell id="Lno-Hep20rI5RP0nEHrE-208" value="" style="shape=partialRectangle;overflow=hidden;connectable=0;fillColor=none;strokeColor=inherit;top=0;left=0;bottom=0;right=0;" parent="Lno-Hep20rI5RP0nEHrE-207" vertex="1">
          <mxGeometry width="30" height="30" as="geometry">
            <mxRectangle width="30" height="30" as="alternateBounds" />
          </mxGeometry>
        </mxCell>
        <mxCell id="Lno-Hep20rI5RP0nEHrE-209" value="gueltig_bis DATE" style="shape=partialRectangle;overflow=hidden;connectable=0;fillColor=none;align=left;strokeColor=inherit;top=0;left=0;bottom=0;right=0;spacingLeft=6;" parent="Lno-Hep20rI5RP0nEHrE-207" vertex="1">
          <mxGeometry x="30" width="290" height="30" as="geometry">
            <mxRectangle width="290" height="30" as="alternateBounds" />
          </mxGeometry>
        </mxCell>
        <mxCell id="Lno-Hep20rI5RP0nEHrE-210" value="" style="shape=tableRow;horizontal=0;startSize=0;swimlaneHead=0;swimlaneBody=0;fillColor=none;collapsible=0;dropTarget=0;points=[[0,0.5],[1,0.5]];portConstraint=eastwest;strokeColor=inherit;top=0;left=0;right=0;bottom=0;" parent="Lno-Hep20rI5RP0nEHrE-182" vertex="1">
          <mxGeometry y="300" width="320" height="30" as="geometry" />
        </mxCell>
        <mxCell id="Lno-Hep20rI5RP0nEHrE-211" value="" style="shape=partialRectangle;overflow=hidden;connectable=0;fillColor=none;strokeColor=inherit;top=0;left=0;bottom=0;right=0;" parent="Lno-Hep20rI5RP0nEHrE-210" vertex="1">
          <mxGeometry width="30" height="30" as="geometry">
            <mxRectangle width="30" height="30" as="alternateBounds" />
          </mxGeometry>
        </mxCell>
        <mxCell id="Lno-Hep20rI5RP0nEHrE-212" value="ist_aktuell BOOLEAN" style="shape=partialRectangle;overflow=hidden;connectable=0;fillColor=none;align=left;strokeColor=inherit;top=0;left=0;bottom=0;right=0;spacingLeft=6;" parent="Lno-Hep20rI5RP0nEHrE-210" vertex="1">
          <mxGeometry x="30" width="290" height="30" as="geometry">
            <mxRectangle width="290" height="30" as="alternateBounds" />
          </mxGeometry>
        </mxCell>
        <mxCell id="Lno-Hep20rI5RP0nEHrE-232" value="" style="shape=tableRow;horizontal=0;startSize=0;swimlaneHead=0;swimlaneBody=0;fillColor=none;collapsible=0;dropTarget=0;points=[[0,0.5],[1,0.5]];portConstraint=eastwest;strokeColor=inherit;top=0;left=0;right=0;bottom=0;" parent="Lno-Hep20rI5RP0nEHrE-182" vertex="1">
          <mxGeometry y="330" width="320" height="30" as="geometry" />
        </mxCell>
        <mxCell id="Lno-Hep20rI5RP0nEHrE-233" value="" style="shape=partialRectangle;overflow=hidden;connectable=0;fillColor=none;strokeColor=inherit;top=0;left=0;bottom=0;right=0;" parent="Lno-Hep20rI5RP0nEHrE-232" vertex="1">
          <mxGeometry width="30" height="30" as="geometry">
            <mxRectangle width="30" height="30" as="alternateBounds" />
          </mxGeometry>
        </mxCell>
        <mxCell id="Lno-Hep20rI5RP0nEHrE-234" value="id_lieferant INT" style="shape=partialRectangle;overflow=hidden;connectable=0;fillColor=none;align=left;strokeColor=inherit;top=0;left=0;bottom=0;right=0;spacingLeft=6;" parent="Lno-Hep20rI5RP0nEHrE-232" vertex="1">
          <mxGeometry x="30" width="290" height="30" as="geometry">
            <mxRectangle width="290" height="30" as="alternateBounds" />
          </mxGeometry>
        </mxCell>
        <mxCell id="Lno-Hep20rI5RP0nEHrE-213" value="dim_lieferant" style="shape=table;startSize=30;container=1;collapsible=1;childLayout=tableLayout;fixedRows=1;rowLines=0;fontStyle=1;align=center;resizeLast=1;" parent="1" vertex="1">
          <mxGeometry x="860" y="2010" width="230" height="210" as="geometry" />
        </mxCell>
        <mxCell id="Lno-Hep20rI5RP0nEHrE-214" value="" style="shape=tableRow;horizontal=0;startSize=0;swimlaneHead=0;swimlaneBody=0;fillColor=none;collapsible=0;dropTarget=0;points=[[0,0.5],[1,0.5]];portConstraint=eastwest;strokeColor=inherit;top=0;left=0;right=0;bottom=1;" parent="Lno-Hep20rI5RP0nEHrE-213" vertex="1">
          <mxGeometry y="30" width="230" height="30" as="geometry" />
        </mxCell>
        <mxCell id="Lno-Hep20rI5RP0nEHrE-215" value="PK" style="shape=partialRectangle;overflow=hidden;connectable=0;fillColor=none;strokeColor=inherit;top=0;left=0;bottom=0;right=0;fontStyle=1;" parent="Lno-Hep20rI5RP0nEHrE-214" vertex="1">
          <mxGeometry width="30" height="30" as="geometry">
            <mxRectangle width="30" height="30" as="alternateBounds" />
          </mxGeometry>
        </mxCell>
        <mxCell id="Lno-Hep20rI5RP0nEHrE-216" value="id_lieferant INT " style="shape=partialRectangle;overflow=hidden;connectable=0;fillColor=none;align=left;strokeColor=inherit;top=0;left=0;bottom=0;right=0;spacingLeft=6;fontStyle=5;" parent="Lno-Hep20rI5RP0nEHrE-214" vertex="1">
          <mxGeometry x="30" width="200" height="30" as="geometry">
            <mxRectangle width="200" height="30" as="alternateBounds" />
          </mxGeometry>
        </mxCell>
        <mxCell id="Lno-Hep20rI5RP0nEHrE-217" value="" style="shape=tableRow;horizontal=0;startSize=0;swimlaneHead=0;swimlaneBody=0;fillColor=none;collapsible=0;dropTarget=0;points=[[0,0.5],[1,0.5]];portConstraint=eastwest;strokeColor=inherit;top=0;left=0;right=0;bottom=0;" parent="Lno-Hep20rI5RP0nEHrE-213" vertex="1">
          <mxGeometry y="60" width="230" height="30" as="geometry" />
        </mxCell>
        <mxCell id="Lno-Hep20rI5RP0nEHrE-218" value="" style="shape=partialRectangle;overflow=hidden;connectable=0;fillColor=none;strokeColor=inherit;top=0;left=0;bottom=0;right=0;" parent="Lno-Hep20rI5RP0nEHrE-217" vertex="1">
          <mxGeometry width="30" height="30" as="geometry">
            <mxRectangle width="30" height="30" as="alternateBounds" />
          </mxGeometry>
        </mxCell>
        <mxCell id="Lno-Hep20rI5RP0nEHrE-219" value="lieferantenname VARCHAR(50)" style="shape=partialRectangle;overflow=hidden;connectable=0;fillColor=none;align=left;strokeColor=inherit;top=0;left=0;bottom=0;right=0;spacingLeft=6;" parent="Lno-Hep20rI5RP0nEHrE-217" vertex="1">
          <mxGeometry x="30" width="200" height="30" as="geometry">
            <mxRectangle width="200" height="30" as="alternateBounds" />
          </mxGeometry>
        </mxCell>
        <mxCell id="Lno-Hep20rI5RP0nEHrE-220" value="" style="shape=tableRow;horizontal=0;startSize=0;swimlaneHead=0;swimlaneBody=0;fillColor=none;collapsible=0;dropTarget=0;points=[[0,0.5],[1,0.5]];portConstraint=eastwest;strokeColor=inherit;top=0;left=0;right=0;bottom=0;" parent="Lno-Hep20rI5RP0nEHrE-213" vertex="1">
          <mxGeometry y="90" width="230" height="30" as="geometry" />
        </mxCell>
        <mxCell id="Lno-Hep20rI5RP0nEHrE-221" value="" style="shape=partialRectangle;overflow=hidden;connectable=0;fillColor=none;strokeColor=inherit;top=0;left=0;bottom=0;right=0;" parent="Lno-Hep20rI5RP0nEHrE-220" vertex="1">
          <mxGeometry width="30" height="30" as="geometry">
            <mxRectangle width="30" height="30" as="alternateBounds" />
          </mxGeometry>
        </mxCell>
        <mxCell id="Lno-Hep20rI5RP0nEHrE-222" value="strasse VARCHAR(100)" style="shape=partialRectangle;overflow=hidden;connectable=0;fillColor=none;align=left;strokeColor=inherit;top=0;left=0;bottom=0;right=0;spacingLeft=6;" parent="Lno-Hep20rI5RP0nEHrE-220" vertex="1">
          <mxGeometry x="30" width="200" height="30" as="geometry">
            <mxRectangle width="200" height="30" as="alternateBounds" />
          </mxGeometry>
        </mxCell>
        <mxCell id="Lno-Hep20rI5RP0nEHrE-223" value="" style="shape=tableRow;horizontal=0;startSize=0;swimlaneHead=0;swimlaneBody=0;fillColor=none;collapsible=0;dropTarget=0;points=[[0,0.5],[1,0.5]];portConstraint=eastwest;strokeColor=inherit;top=0;left=0;right=0;bottom=0;" parent="Lno-Hep20rI5RP0nEHrE-213" vertex="1">
          <mxGeometry y="120" width="230" height="30" as="geometry" />
        </mxCell>
        <mxCell id="Lno-Hep20rI5RP0nEHrE-224" value="" style="shape=partialRectangle;overflow=hidden;connectable=0;fillColor=none;strokeColor=inherit;top=0;left=0;bottom=0;right=0;" parent="Lno-Hep20rI5RP0nEHrE-223" vertex="1">
          <mxGeometry width="30" height="30" as="geometry">
            <mxRectangle width="30" height="30" as="alternateBounds" />
          </mxGeometry>
        </mxCell>
        <mxCell id="Lno-Hep20rI5RP0nEHrE-225" value="plz VARCHAR(10)" style="shape=partialRectangle;overflow=hidden;connectable=0;fillColor=none;align=left;strokeColor=inherit;top=0;left=0;bottom=0;right=0;spacingLeft=6;" parent="Lno-Hep20rI5RP0nEHrE-223" vertex="1">
          <mxGeometry x="30" width="200" height="30" as="geometry">
            <mxRectangle width="200" height="30" as="alternateBounds" />
          </mxGeometry>
        </mxCell>
        <mxCell id="Lno-Hep20rI5RP0nEHrE-226" value="" style="shape=tableRow;horizontal=0;startSize=0;swimlaneHead=0;swimlaneBody=0;fillColor=none;collapsible=0;dropTarget=0;points=[[0,0.5],[1,0.5]];portConstraint=eastwest;strokeColor=inherit;top=0;left=0;right=0;bottom=0;" parent="Lno-Hep20rI5RP0nEHrE-213" vertex="1">
          <mxGeometry y="150" width="230" height="30" as="geometry" />
        </mxCell>
        <mxCell id="Lno-Hep20rI5RP0nEHrE-227" value="" style="shape=partialRectangle;overflow=hidden;connectable=0;fillColor=none;strokeColor=inherit;top=0;left=0;bottom=0;right=0;" parent="Lno-Hep20rI5RP0nEHrE-226" vertex="1">
          <mxGeometry width="30" height="30" as="geometry">
            <mxRectangle width="30" height="30" as="alternateBounds" />
          </mxGeometry>
        </mxCell>
        <mxCell id="Lno-Hep20rI5RP0nEHrE-228" value="stadt VARCHAR(50)" style="shape=partialRectangle;overflow=hidden;connectable=0;fillColor=none;align=left;strokeColor=inherit;top=0;left=0;bottom=0;right=0;spacingLeft=6;" parent="Lno-Hep20rI5RP0nEHrE-226" vertex="1">
          <mxGeometry x="30" width="200" height="30" as="geometry">
            <mxRectangle width="200" height="30" as="alternateBounds" />
          </mxGeometry>
        </mxCell>
        <mxCell id="Lno-Hep20rI5RP0nEHrE-229" value="" style="shape=tableRow;horizontal=0;startSize=0;swimlaneHead=0;swimlaneBody=0;fillColor=none;collapsible=0;dropTarget=0;points=[[0,0.5],[1,0.5]];portConstraint=eastwest;strokeColor=inherit;top=0;left=0;right=0;bottom=0;" parent="Lno-Hep20rI5RP0nEHrE-213" vertex="1">
          <mxGeometry y="180" width="230" height="30" as="geometry" />
        </mxCell>
        <mxCell id="Lno-Hep20rI5RP0nEHrE-230" value="" style="shape=partialRectangle;overflow=hidden;connectable=0;fillColor=none;strokeColor=inherit;top=0;left=0;bottom=0;right=0;" parent="Lno-Hep20rI5RP0nEHrE-229" vertex="1">
          <mxGeometry width="30" height="30" as="geometry">
            <mxRectangle width="30" height="30" as="alternateBounds" />
          </mxGeometry>
        </mxCell>
        <mxCell id="Lno-Hep20rI5RP0nEHrE-231" value="bundesland VARCHAR(50)" style="shape=partialRectangle;overflow=hidden;connectable=0;fillColor=none;align=left;strokeColor=inherit;top=0;left=0;bottom=0;right=0;spacingLeft=6;" parent="Lno-Hep20rI5RP0nEHrE-229" vertex="1">
          <mxGeometry x="30" width="200" height="30" as="geometry">
            <mxRectangle width="200" height="30" as="alternateBounds" />
          </mxGeometry>
        </mxCell>
        <mxCell id="Lno-Hep20rI5RP0nEHrE-235" style="edgeStyle=orthogonalEdgeStyle;rounded=0;orthogonalLoop=1;jettySize=auto;html=1;entryX=0.618;entryY=0.977;entryDx=0;entryDy=0;entryPerimeter=0;exitX=0;exitY=0.5;exitDx=0;exitDy=0;" parent="1" source="Lno-Hep20rI5RP0nEHrE-126" target="Lno-Hep20rI5RP0nEHrE-157" edge="1">
          <mxGeometry relative="1" as="geometry" />
        </mxCell>
        <mxCell id="Lno-Hep20rI5RP0nEHrE-236" style="edgeStyle=orthogonalEdgeStyle;rounded=0;orthogonalLoop=1;jettySize=auto;html=1;entryX=0.443;entryY=1.026;entryDx=0;entryDy=0;entryPerimeter=0;" parent="1" source="Lno-Hep20rI5RP0nEHrE-119" target="Lno-Hep20rI5RP0nEHrE-179" edge="1">
          <mxGeometry relative="1" as="geometry" />
        </mxCell>
        <mxCell id="Lno-Hep20rI5RP0nEHrE-237" style="edgeStyle=orthogonalEdgeStyle;rounded=0;orthogonalLoop=1;jettySize=auto;html=1;entryX=0;entryY=0.5;entryDx=0;entryDy=0;" parent="1" source="Lno-Hep20rI5RP0nEHrE-123" target="Lno-Hep20rI5RP0nEHrE-198" edge="1">
          <mxGeometry relative="1" as="geometry" />
        </mxCell>
        <mxCell id="Lno-Hep20rI5RP0nEHrE-238" style="edgeStyle=orthogonalEdgeStyle;rounded=0;orthogonalLoop=1;jettySize=auto;html=1;entryX=0;entryY=0.5;entryDx=0;entryDy=0;" parent="1" source="Lno-Hep20rI5RP0nEHrE-135" target="Lno-Hep20rI5RP0nEHrE-220" edge="1">
          <mxGeometry relative="1" as="geometry" />
        </mxCell>
        <mxCell id="Lno-Hep20rI5RP0nEHrE-242" value="Preis" style="ellipse;whiteSpace=wrap;html=1;align=center;" parent="1" vertex="1">
          <mxGeometry x="449" y="650" width="100" height="40" as="geometry" />
        </mxCell>
        <mxCell id="HF65rfH89SVkB0lLUi4M-1" value="PK" style="shape=partialRectangle;overflow=hidden;connectable=0;fillColor=none;strokeColor=inherit;top=0;left=0;bottom=0;right=0;fontStyle=1;" parent="1" vertex="1">
          <mxGeometry x="345" y="2030" width="30" height="30" as="geometry">
            <mxRectangle width="30" height="30" as="alternateBounds" />
          </mxGeometry>
        </mxCell>
        <mxCell id="HF65rfH89SVkB0lLUi4M-2" value="id_Lieferant INT " style="shape=partialRectangle;overflow=hidden;connectable=0;fillColor=none;align=left;strokeColor=inherit;top=0;left=0;bottom=0;right=0;spacingLeft=6;fontStyle=5;" parent="1" vertex="1">
          <mxGeometry x="375" y="2030" width="290" height="30" as="geometry">
            <mxRectangle width="290" height="30" as="alternateBounds" />
          </mxGeometry>
        </mxCell>
        <mxCell id="sXnYkL59QyAPJXKLkiFu-1" value="" style="endArrow=none;html=1;rounded=0;strokeColor=default;align=center;verticalAlign=middle;fontFamily=Helvetica;fontSize=11;fontColor=default;labelBackgroundColor=default;edgeStyle=orthogonalEdgeStyle;exitX=0.676;exitY=0.828;exitDx=0;exitDy=0;exitPerimeter=0;entryX=0.53;entryY=0.023;entryDx=0;entryDy=0;entryPerimeter=0;" parent="1" source="QBYk8rgSqJVbzHIFE_xx-6" target="Lno-Hep20rI5RP0nEHrE-242" edge="1">
          <mxGeometry relative="1" as="geometry">
            <mxPoint x="489.75" y="592" as="sourcePoint" />
            <mxPoint x="502" y="647" as="targetPoint" />
            <Array as="points">
              <mxPoint x="502" y="590" />
            </Array>
          </mxGeometry>
        </mxCell>
        <mxCell id="-1TwkTnlUkwcCRJVOmrM-1" value="Datum-Uhrzeit&lt;div&gt;local&lt;/div&gt;" style="ellipse;whiteSpace=wrap;html=1;align=center;" vertex="1" parent="1">
          <mxGeometry x="449" y="700" width="100" height="40" as="geometry" />
        </mxCell>
        <mxCell id="-1TwkTnlUkwcCRJVOmrM-2" value="" style="endArrow=none;html=1;rounded=0;strokeColor=default;align=center;verticalAlign=middle;fontFamily=Helvetica;fontSize=11;fontColor=default;labelBackgroundColor=default;edgeStyle=orthogonalEdgeStyle;entryX=-0.004;entryY=0.505;entryDx=0;entryDy=0;exitX=0.601;exitY=0.91;exitDx=0;exitDy=0;exitPerimeter=0;entryPerimeter=0;" edge="1" parent="1" source="QBYk8rgSqJVbzHIFE_xx-6" target="-1TwkTnlUkwcCRJVOmrM-1">
          <mxGeometry relative="1" as="geometry">
            <mxPoint x="450" y="610" as="sourcePoint" />
            <mxPoint x="516" y="651" as="targetPoint" />
            <Array as="points">
              <mxPoint x="437" y="610" />
              <mxPoint x="437" y="720" />
            </Array>
          </mxGeometry>
        </mxCell>
      </root>
    </mxGraphModel>
  </diagram>
</mxfile>
